<svg xmlns="http://www.w3.org/2000/svg" width="1320" height="935.611" viewBox="0 0 990 701.708"><g data-name="Layer 1"><clipPath id="a"><path transform="matrix(1 0 0 -1 0 701.708)" d="M0 701.708h990V0H0z"/></clipPath><g clip-path="url(#a)"><path d="M493.064 624.373c-148.666 0-269.615-120.949-269.615-269.615S344.398 85.144 493.064 85.144v1.72c-147.719 0-267.896 120.176-267.896 267.894 0 147.72 120.177 267.895 267.896 267.895z" fill="#94c9df"/><path stroke-width="3" stroke-linecap="round" stroke-miterlimit="10" fill="none" stroke="#94c9df" d="M493.064 624.373c-148.666 0-269.615-120.949-269.615-269.615S344.398 85.144 493.064 85.144v1.72c-147.719 0-267.896 120.176-267.896 267.894 0 147.72 120.177 267.895 267.896 267.895v1.72z"/><path d="M495.863 611.993c-143.382 0-260.033-116.65-260.033-260.033h13.758c0 135.797 110.478 246.275 246.275 246.275 135.795 0 246.273-110.478 246.273-246.275 0-135.795-110.478-246.274-246.273-246.274V91.929c143.381 0 260.031 116.65 260.031 260.03 0 143.384-116.65 260.034-260.03 260.034" fill="#94c9df"/><path d="M501.731 109.516a254.002 254.002 0 00-3.382-.057l.087-8.6c1.167.014 2.333.033 3.497.06zm-13.516.049l-.265-8.595c1.162-.036 2.326-.064 3.491-.083l.145 8.596c-1.125.02-2.249.047-3.37.082m23.638.4a248.189 248.189 0 00-3.372-.196l.44-8.587c1.167.06 2.331.127 3.493.203zm-33.764.123l-.618-8.577c1.161-.083 2.325-.16 3.49-.227l.504 8.583c-1.129.066-2.252.139-3.376.22m43.868.746c-1.119-.12-2.239-.232-3.362-.336l.792-8.562c1.164.108 2.324.224 3.483.348zm-53.959.196l-.978-8.543c1.158-.133 2.318-.257 3.48-.373l.857 8.556c-1.122.112-2.242.233-3.359.36m64.01 1.093a234.119 234.119 0 00-3.346-.476l1.152-8.522c1.157.157 2.313.32 3.467.493zm-74.054.269l-1.33-8.494c1.15-.181 2.302-.353 3.457-.518l1.22 8.51c-1.119.16-2.234.328-3.347.502m84.048 1.438a259.578 259.578 0 00-3.324-.617l1.508-8.464c1.151.204 2.296.418 3.438.637zm-94.024.343l-1.689-8.43c1.143-.23 2.29-.451 3.44-.664l1.564 8.454c-1.107.206-2.212.419-3.315.64m103.93 1.782a254.187 254.187 0 00-3.295-.756l1.865-8.393c1.138.253 2.275.513 3.41.78zm-113.82.416l-2.044-8.352a231.75 231.75 0 013.408-.808l1.918 8.382a220.7 220.7 0 00-3.282.778m123.635 2.124a241.637 241.637 0 00-3.263-.893l2.217-8.308c1.125.3 2.248.609 3.37.923zm-133.433.489l-2.387-8.26c1.118-.324 2.24-.64 3.365-.948l2.277 8.29a252.41 252.41 0 00-3.255.918m143.14 2.468a248.624 248.624 0 00-3.235-1.035l2.563-8.207c1.118.349 2.233.706 3.345 1.07zm-152.813.555l-2.734-8.152c1.104-.37 2.21-.733 3.32-1.09l2.632 8.186c-1.075.346-2.148.697-3.218 1.056m162.41 2.814c-1.06-.398-2.122-.787-3.187-1.17l2.905-8.092c1.102.395 2.2.798 3.297 1.209zm-171.945.613l-3.077-8.03a247.15 247.15 0 013.275-1.228l2.966 8.07c-1.058.39-2.113.786-3.164 1.188m181.377 3.157a225.998 225.998 0 00-3.127-1.302l3.247-7.962c1.084.442 2.164.892 3.242 1.349zm-190.728.654l-3.409-7.893c1.066-.461 2.136-.915 3.21-1.361l3.297 7.94c-1.036.43-2.069.87-3.098 1.314m200 3.508c-1.02-.484-2.043-.96-3.07-1.431l3.577-7.82c1.064.488 2.124.983 3.181 1.484zm-209.188.694l-3.738-7.744a239.246 239.246 0 013.15-1.494l3.631 7.794c-1.018.475-2.032.956-3.043 1.444m218.278 3.856a259.88 259.88 0 00-3.009-1.56l3.9-7.662c1.042.53 2.078 1.069 3.113 1.613zm-227.285.729l-4.057-7.582a282.854 282.854 0 013.082-1.623l3.96 7.632c-.998.518-1.994 1.042-2.985 1.573m236.162 4.194a275.448 275.448 0 00-2.94-1.684l4.222-7.49c1.017.574 2.03 1.154 3.038 1.74zm-244.973.765l-4.373-7.405c1.001-.59 2.006-1.175 3.016-1.752l4.272 7.46a248.45 248.45 0 00-2.915 1.697m253.636 4.525c-.953-.607-1.907-1.21-2.867-1.805l4.534-7.307c.991.616 1.978 1.238 2.961 1.866zm-262.238.798l-4.679-7.213c.976-.634 1.958-1.26 2.944-1.88l4.575 7.28c-.952.598-1.898 1.203-2.84 1.813m270.67 4.846a250.337 250.337 0 00-2.786-1.92l4.833-7.113c.966.657 1.926 1.32 2.883 1.99zm-279.049.836l-4.97-7.015c.948-.674 1.904-1.341 2.863-2l4.873 7.083c-.925.638-1.849 1.282-2.766 1.932m287.234 5.155a226.664 226.664 0 00-2.7-2.034l5.125-6.904c.94.696 1.871 1.399 2.798 2.107zm-295.367.87l-5.26-6.801a257.54 257.54 0 012.778-2.118l5.166 6.874c-.9.676-1.794 1.357-2.684 2.046m303.3 5.455a254.22 254.22 0 00-2.614-2.145l5.407-6.686c.907.734 1.811 1.476 2.707 2.222zm-311.18.907l-5.536-6.58c.89-.748 1.785-1.491 2.683-2.228l5.455 6.647c-.872.716-1.74 1.436-2.603 2.16m318.833 5.74a242.45 242.45 0 00-2.519-2.251l5.683-6.452c.875.77 1.745 1.548 2.61 2.33zm-326.444.947l-5.807-6.341c.86-.787 1.724-1.568 2.596-2.344l5.717 6.422a225.19 225.19 0 00-2.506 2.263m333.818 6.012a283.643 283.643 0 00-2.425-2.354l5.945-6.21c.843.806 1.68 1.618 2.51 2.434zm-341.147.987l-6.066-6.096a287.95 287.95 0 012.496-2.45l5.982 6.178c-.81.783-1.614 1.573-2.412 2.368m348.222 6.269a268.996 268.996 0 00-2.324-2.451l6.197-5.96c.81.842 1.612 1.688 2.408 2.54zm-355.255 1.027l-6.315-5.836c.791-.856 1.59-1.706 2.392-2.551l6.234 5.92c-.776.818-1.547 1.64-2.31 2.467m362.027 6.519a285.71 285.71 0 00-2.225-2.55l6.441-5.695c.77.87 1.533 1.748 2.293 2.629zM311.03 194.95l-6.553-5.57c.756-.89 1.52-1.773 2.29-2.652l6.468 5.665c-.742.847-1.476 1.699-2.205 2.557m375.192 6.74a240.59 240.59 0 00-2.11-2.632l6.672-5.423a236.84 236.84 0 012.185 2.726zm-381.599 1.119l-6.78-5.288c.718-.921 1.443-1.837 2.175-2.748l6.701 5.389c-.705.877-1.404 1.76-2.096 2.647m387.712 6.953c-.659-.91-1.324-1.815-1.997-2.714l6.89-5.147c.696.934 1.387 1.874 2.073 2.818zm-393.793 1.174l-6.989-5.007c.678-.95 1.365-1.892 2.057-2.831l6.922 5.098c-.668.909-1.33 1.823-1.99 2.74m399.565 7.144a285.319 285.319 0 00-1.886-2.801l7.1-4.848c.657.96 1.307 1.925 1.95 2.894zm-405.295 1.226l-7.198-4.706c.642-.98 1.29-1.953 1.943-2.923l7.124 4.816a201.59 201.59 0 00-1.869 2.813m410.71 7.318c-.582-.962-1.172-1.92-1.764-2.872l7.295-4.55c.616.988 1.226 1.98 1.827 2.975zm-416.092 1.288l-7.386-4.4a222.044 222.044 0 011.82-3.005l7.316 4.518c-.59.957-1.174 1.92-1.75 2.887m421.146 7.476c-.543-.985-1.09-1.967-1.644-2.945l7.476-4.243a245.587 245.587 0 011.702 3.044zm-426.164 1.356l-7.56-4.095c.555-1.027 1.118-2.05 1.687-3.068l7.507 4.192c-.549.985-1.095 1.975-1.634 2.97m430.84 7.6a221.947 221.947 0 00-1.517-3.002l7.648-3.932a239.33 239.33 0 011.573 3.119zm-435.482 1.43l-7.729-3.766a230.011 230.011 0 011.562-3.147l7.672 3.883a230.77 230.77 0 00-1.505 3.03m439.784 7.717a249.643 249.643 0 00-1.39-3.067l7.805-3.606c.487 1.054.968 2.113 1.441 3.175zM273.508 255l-7.88-3.442c.47-1.073.944-2.142 1.428-3.208l7.83 3.557a213.814 213.814 0 00-1.378 3.093m447.957 7.814a222.538 222.538 0 00-1.263-3.132l7.951-3.276a247.17 247.17 0 011.31 3.247zm-451.828 1.588l-8.018-3.111c.425-1.092.855-2.18 1.292-3.263l7.973 3.218a227.26 227.26 0 00-1.247 3.156m455.358 7.91a206.869 206.869 0 00-1.13-3.181l8.081-2.938a273.92 273.92 0 011.174 3.3zm-458.83 1.64l-8.145-2.758c.377-1.11.761-2.218 1.154-3.32l8.102 2.877a241.6 241.6 0 00-1.11 3.202m461.955 8.003c-.326-1.08-.657-2.155-.998-3.228l8.2-2.596c.35 1.113.694 2.227 1.03 3.345zm-465.017 1.684l-8.253-2.417c.328-1.118.664-2.233 1.005-3.345l8.222 2.519c-.33 1.079-.657 2.16-.974 3.243m467.734 8.078a241.246 241.246 0 00-.86-3.268l8.3-2.243c.303 1.125.601 2.253.89 3.384zm-470.379 1.704l-8.347-2.064c.281-1.135.57-2.268.87-3.396l8.312 2.193a226.42 226.42 0 00-.835 3.267m472.68 8.165a235.523 235.523 0 00-.72-3.3l8.386-1.893c.257 1.137.506 2.276.747 3.418zm-474.91 1.722l-8.427-1.712c.233-1.146.475-2.29.723-3.43l8.401 1.842a191.228 191.228 0 00-.697 3.3m476.794 8.238a240.964 240.964 0 00-.583-3.33l8.461-1.54c.208 1.147.41 2.296.603 3.447zm-478.608 1.735l-8.49-1.36c.184-1.152.377-2.301.577-3.45l8.471 1.475c-.194 1.109-.38 2.22-.558 3.335m480.077 8.293a245.156 245.156 0 00-.443-3.35l8.518-1.186c.16 1.153.312 2.309.457 3.468zm-481.47 1.746l-8.539-1.006c.136-1.162.281-2.321.433-3.478l8.525 1.135c-.15 1.114-.287 2.23-.42 3.349m482.518 8.333a231.69 231.69 0 00-.303-3.361l8.558-.833c.113 1.16.217 2.324.313 3.489zm-483.492 1.759l-8.575-.655c.09-1.163.185-2.326.29-3.483l8.564.769a249.322 249.322 0 00-.279 3.369m484.12 8.36c-.046-1.125-.1-2.25-.163-3.371l8.585-.48c.065 1.165.121 2.332.17 3.5zm-484.673 1.758l-8.595-.29c.041-1.167.088-2.334.145-3.5l8.588.418a221.91 221.91 0 00-.138 3.372m-8.737 10.195l-.007-1.753.005-1.737 8.598.05-.005 1.674.007 1.715zm502.194 1.73l-8.598-.113c.015-1.126.024-2.254.024-3.383h8.598c0 1.168-.008 2.332-.024 3.497m-501.907 8.76a253.896 253.896 0 01-.145-3.5l8.595-.29c.037 1.126.084 2.25.138 3.373zm501.548 1.723l-8.585-.467c.061-1.124.116-2.25.161-3.378l8.592.353a267.631 267.631 0 01-.168 3.492m-500.828 8.744c-.104-1.16-.2-2.321-.289-3.484l8.575-.656c.086 1.127.178 2.249.28 3.37zm500.035 1.723l-8.558-.833c.11-1.117.21-2.238.303-3.36l8.568.705a234.03 234.03 0 01-.313 3.488M246.92 385.11a233.889 233.889 0 01-.434-3.476l8.542-.994c.13 1.118.27 2.235.416 3.349zm497.653 1.72l-8.517-1.185c.156-1.116.302-2.232.443-3.351l8.531 1.068a243.105 243.105 0 01-.457 3.468m-496.063 8.654c-.2-1.147-.393-2.297-.578-3.451l8.491-1.357c.178 1.113.365 2.223.558 3.334zm494.4 1.713l-8.458-1.552c.203-1.105.395-2.211.581-3.321l8.481 1.42a232.65 232.65 0 01-.605 3.453m-492.375 8.587a241.888 241.888 0 01-.722-3.426l8.427-1.71c.223 1.105.456 2.207.695 3.305zm490.283 1.693l-8.387-1.891c.247-1.1.49-2.2.72-3.302l8.414 1.773a249.66 249.66 0 01-.747 3.42m-487.828 8.509a250.002 250.002 0 01-.865-3.384l8.343-2.076c.274 1.095.553 2.189.838 3.28zm485.304 1.673l-8.303-2.231c.292-1.09.58-2.181.86-3.274l8.33 2.126c-.288 1.13-.585 2.255-.887 3.379m-482.42 8.423a253.54 253.54 0 01-1.01-3.35l8.253-2.418c.315 1.08.641 2.159.972 3.236zm479.461 1.666l-8.199-2.586c.34-1.08.673-2.161 1.001-3.248l8.232 2.482c-.338 1.12-.682 2.239-1.034 3.352m-476.16 8.297a286.364 286.364 0 01-1.145-3.301l8.138-2.77c.365 1.068.734 2.134 1.112 3.195zm472.772 1.682l-8.08-2.94c.385-1.06.763-2.125 1.134-3.193l8.122 2.822a235.403 235.403 0 01-1.176 3.31m-469.05 8.135a292.624 292.624 0 01-1.285-3.252l8.017-3.11a233.81 233.81 0 001.245 3.147zm465.246 1.684l-7.95-3.278c.432-1.045.853-2.091 1.27-3.142l7.994 3.164c-.43 1.088-.869 2.174-1.314 3.256m-461.13 7.928a245.31 245.31 0 01-1.414-3.18l7.876-3.445c.452 1.03.91 2.059 1.371 3.082zm456.915 1.717l-7.806-3.608a269.1 269.1 0 001.403-3.086l7.852 3.5a234.814 234.814 0 01-1.449 3.194m-452.399 7.725a300.389 300.389 0 01-1.545-3.115l7.721-3.78c.496 1.012.996 2.02 1.502 3.026zm447.791 1.725l-7.65-3.927a244.188 244.188 0 001.527-3.023l7.701 3.819a254.483 254.483 0 01-1.578 3.13m-442.879 7.526a227.648 227.648 0 01-1.68-3.063l7.566-4.081c.533.987 1.073 1.97 1.621 2.949zm437.874 1.723l-7.48-4.242c.558-.983 1.11-1.97 1.656-2.96l7.531 4.149a265.612 265.612 0 01-1.707 3.053m-432.58 7.31a287.468 287.468 0 01-1.803-2.981l7.383-4.406a280.58 280.58 0 001.748 2.89zm427.191 1.723l-7.288-4.561c.598-.955 1.187-1.914 1.771-2.878l7.356 4.45a213.877 213.877 0 01-1.839 2.989M287.4 492.009a239.003 239.003 0 01-1.925-2.902l7.188-4.715c.62.942 1.242 1.882 1.871 2.818zm415.768 1.705l-7.09-4.864c.638-.93 1.268-1.864 1.891-2.802l7.161 4.759c-.647.972-1.3 1.943-1.962 2.907m-409.734 6.867a245.32 245.32 0 01-2.053-2.831l7-4.995c.653.915 1.312 1.826 1.978 2.73zm403.618 1.673l-6.882-5.156c.675-.9 1.343-1.807 2.005-2.72l6.956 5.056c-.689.945-1.38 1.886-2.079 2.82m-397.237 6.638a250.582 250.582 0 01-2.166-2.741l6.785-5.283c.692.888 1.39 1.772 2.092 2.65zm390.771 1.636l-6.663-5.431c.712-.875 1.42-1.753 2.12-2.637l6.737 5.34a244.49 244.49 0 01-2.194 2.728m-384.043 6.412c-.764-.878-1.525-1.76-2.277-2.65l6.556-5.561c.73.858 1.463 1.713 2.203 2.56zm377.244 1.583l-6.436-5.703c.75-.844 1.491-1.693 2.23-2.546l6.508 5.616c-.76.884-1.53 1.762-2.302 2.633M313.601 524.7a288.077 288.077 0 01-2.388-2.552l6.321-5.831c.765.829 1.534 1.652 2.308 2.469zm363.058 1.532l-6.187-5.972c.783-.81 1.557-1.626 2.328-2.447l6.271 5.88c-.798.853-1.602 1.699-2.412 2.539m-355.68 5.932a231.106 231.106 0 01-2.494-2.456l6.073-6.086c.797.795 1.598 1.585 2.406 2.368zm348.242 1.47l-5.935-6.223c.815-.776 1.624-1.56 2.427-2.348l6.022 6.136c-.833.818-1.67 1.63-2.514 2.436m-340.566 5.678a287.957 287.957 0 01-2.589-2.345l5.81-6.338c.832.763 1.668 1.518 2.51 2.27zm332.826 1.407l-5.663-6.47c.846-.74 1.684-1.49 2.517-2.241l5.764 6.382c-.867.782-1.738 1.558-2.618 2.329m-324.849 5.424c-.903-.74-1.802-1.488-2.693-2.242l5.548-6.57c.862.728 1.727 1.448 2.597 2.164zm316.833 1.325l-5.4-6.69a251.07 251.07 0 002.611-2.138l5.495 6.613c-.897.746-1.8 1.483-2.706 2.215m-308.578 5.168a261.966 261.966 0 01-2.783-2.126l5.27-6.795c.888.69 1.783 1.374 2.685 2.052zm300.29 1.243l-5.127-6.903a288.56 288.56 0 002.702-2.032l5.213 6.839c-.925.705-1.854 1.402-2.789 2.096m-291.77 4.903a233.973 233.973 0 01-2.873-2.013l4.987-7.003c.916.65 1.84 1.298 2.766 1.936zm283.215 1.159l-4.823-7.117c.93-.632 1.855-1.268 2.776-1.911l4.927 7.046a236.12 236.12 0 01-2.88 1.982m-274.445 4.627a251.35 251.35 0 01-2.956-1.893l4.692-7.204c.944.614 1.895 1.22 2.85 1.822zm265.658 1.07l-4.53-7.31c.957-.592 1.911-1.19 2.86-1.796l4.621 7.252a305.43 305.43 0 01-2.95 1.854m-256.649 4.346a252.232 252.232 0 01-3.032-1.765l4.38-7.4c.97.575 1.943 1.14 2.924 1.702zm247.625.98l-4.215-7.493a232.74 232.74 0 002.924-1.672l4.322 7.432a237.452 237.452 0 01-3.03 1.734m-238.396 4.054a277.529 277.529 0 01-3.102-1.634l4.061-7.581c.994.534 1.993 1.06 2.997 1.58zm229.167.888l-3.9-7.661a272.005 272.005 0 002.991-1.55l4.007 7.607c-1.029.543-2.06 1.077-3.098 1.604m-219.724 3.76c-1.063-.493-2.12-.997-3.174-1.506l3.745-7.742c1.014.492 2.034.976 3.056 1.453zm210.306.786l-3.587-7.816c1.024-.468 2.043-.943 3.06-1.424l3.681 7.769c-1.046.497-2.099.986-3.154 1.47m-200.678 3.459c-1.083-.45-2.162-.907-3.235-1.372l3.416-7.89c1.036.449 2.074.889 3.117 1.322zm191.067.694l-3.238-7.967c1.038-.422 2.072-.852 3.103-1.288l3.356 7.916c-1.07.454-2.143.9-3.22 1.339m-181.266 3.143a259.816 259.816 0 01-3.286-1.232l3.073-8.031c1.056.405 2.114.803 3.176 1.192zm171.47.61l-2.913-8.091c1.06-.382 2.117-.77 3.172-1.166l3.023 8.05c-1.092.41-2.187.812-3.283 1.207m-161.507 2.813c-1.116-.356-2.228-.72-3.338-1.093l2.734-8.152c1.073.359 2.148.71 3.224 1.056zm151.555.527l-2.566-8.205c1.076-.338 2.15-.682 3.221-1.031l2.673 8.172c-1.105.362-2.215.717-3.328 1.064m-141.493 2.46a277.298 277.298 0 01-3.364-.946l2.385-8.263c1.081.312 2.168.618 3.256.917zm131.413.457l-2.223-8.306a244.06 244.06 0 003.261-.895l2.334 8.276c-1.12.316-2.243.623-3.372.925m-121.233 2.105a259.3 259.3 0 01-3.406-.806l2.042-8.354c1.094.267 2.19.528 3.29.78zm111.031.386l-1.864-8.394a280.8 280.8 0 003.295-.755l1.978 8.366c-1.134.269-2.27.53-3.409.783m-100.757 1.745a254.117 254.117 0 01-3.435-.664l1.692-8.43c1.102.222 2.207.433 3.315.64zm90.46.314l-1.499-8.468c1.108-.196 2.215-.401 3.318-.614l1.626 8.444c-1.147.22-2.294.435-3.446.638m-80.095 1.385a221.06 221.06 0 01-3.468-.52l1.337-8.493c1.11.175 2.222.34 3.337.499zm69.735.24l-1.159-8.521c1.118-.151 2.234-.31 3.347-.477l1.273 8.505c-1.15.17-2.306.336-3.46.494m-59.32 1.02c-1.16-.115-2.32-.24-3.477-.371l.971-8.544c1.118.127 2.24.248 3.362.36zm48.888.17l-.793-8.561c1.121-.104 2.241-.217 3.358-.336l.92 8.548c-1.16.126-2.32.242-3.485.349m-38.429.66a267.434 267.434 0 01-3.488-.228l.618-8.575c1.123.08 2.247.153 3.374.218zm27.963.096l-.44-8.588a232.86 232.86 0 003.377-.197l.555 8.582c-1.16.074-2.325.143-3.492.203m-17.48.299a311.535 311.535 0 01-3.497-.084l.265-8.595c1.127.035 2.252.062 3.383.08zm6.997.025l-.087-8.598c1.125-.012 2.252-.032 3.377-.057l.202 8.595c-1.162.028-2.326.048-3.492.06" fill="#94c9df"/><path d="M495.863 567.545c-119.064 0-215.584-96.52-215.584-215.584 0-119.064 96.52-215.584 215.584-215.584 119.064 0 215.584 96.52 215.584 215.584 0 119.064-96.52 215.584-215.584 215.584m0-439.757c-123.808 0-224.173 100.366-224.173 224.173s100.365 224.173 224.173 224.173S720.036 475.768 720.036 351.96 619.67 127.788 495.863 127.788" fill="#f9082a"/><path stroke-width="4" stroke-miterlimit="10" fill="none" stroke="#f9082a" d="M495.863 567.545c-119.064 0-215.584-96.52-215.584-215.584 0-119.064 96.52-215.584 215.584-215.584 119.064 0 215.584 96.52 215.584 215.584 0 119.064-96.52 215.584-215.584 215.584zm0-439.757c-123.808 0-224.173 100.366-224.173 224.173s100.365 224.173 224.173 224.173S720.036 475.768 720.036 351.96 619.67 127.788 495.863 127.788z"/><path d="M493.736 173.264l-.118-10.318c.744-.01 1.49-.013 2.236-.014l1.303.005-.061 10.318-1.235-.004c-.706 0-1.415.005-2.125.013m11.73.243c-1.115-.06-2.231-.11-3.35-.148l.363-10.311c1.179.04 2.359.093 3.538.156zm-20.102.05l-.604-10.301c1.179-.068 2.359-.126 3.54-.173l.413 10.309c-1.117.046-2.234.1-3.35.166m28.458.59a178.843 178.843 0 00-3.336-.302l.836-10.285c1.179.096 2.356.203 3.532.322zm-36.81.093l-1.085-10.261c1.176-.124 2.355-.237 3.532-.34l.89 10.28c-1.113.097-2.225.204-3.337.32m45.123.94a186.425 186.425 0 00-3.32-.46l1.32-10.232c1.17.15 2.34.312 3.508.485zm-53.438.134l-1.558-10.2a189.66 189.66 0 013.507-.502l1.373 10.226c-1.108.148-2.215.307-3.322.476m61.693 1.284a175.052 175.052 0 00-3.294-.613l1.797-10.161c1.162.205 2.323.42 3.482.649zm-69.948.178l-2.033-10.116c1.159-.233 2.32-.455 3.482-.667l1.847 10.152c-1.1.2-2.198.41-3.296.63m78.128 1.624c-1.085-.265-2.172-.52-3.26-.765l2.264-10.066c1.152.258 2.302.529 3.45.81zm-86.305.222l-2.506-10.01c1.147-.286 2.297-.562 3.448-.83l2.32 10.055c-1.09.252-2.176.513-3.262.785m94.386 1.963a171.266 171.266 0 00-3.221-.92l2.74-9.947c1.138.313 2.275.637 3.407.972zm-102.468.265l-2.975-9.88c1.133-.341 2.268-.672 3.407-.991l2.788 9.934c-1.075.302-2.15.614-3.22.937m110.438 2.293c-1.054-.367-2.11-.722-3.172-1.068l3.2-9.81c1.123.367 2.243.744 3.358 1.13zm-118.406.31l-3.44-9.726c1.117-.396 2.237-.78 3.36-1.152l3.249 9.794c-1.06.35-2.116.713-3.17 1.085m126.248 2.62a171.472 171.472 0 00-3.116-1.215l3.654-9.65c1.103.418 2.205.847 3.302 1.287zm-134.088.36l-3.89-9.557c1.097-.446 2.197-.882 3.302-1.308l3.708 9.628c-1.045.402-2.084.815-3.12 1.237m141.778 2.936a196.835 196.835 0 00-3.058-1.363l4.11-9.463c1.083.469 2.159.949 3.234 1.44zm-149.465.408l-4.343-9.36c1.075-.498 2.155-.986 3.236-1.463l4.162 9.44c-1.021.45-2.041.912-3.055 1.383m156.992 3.246a163.44 163.44 0 00-2.987-1.503l4.547-9.262c1.059.52 2.113 1.05 3.163 1.59zm-164.52.46l-4.775-9.145c1.05-.548 2.104-1.087 3.164-1.614l4.6 9.235c-.998.499-1.995 1.007-2.988 1.525m171.863 3.543a181.207 181.207 0 00-2.915-1.642l4.98-9.037a184.73 184.73 0 013.084 1.738zm-179.203.514l-5.207-8.91a181.849 181.849 0 013.089-1.763l5.03 9.008c-.976.546-1.945 1.1-2.912 1.665m186.342 3.829a171.12 171.12 0 00-2.828-1.776l5.4-8.791c1.006.617 2.005 1.244 3 1.883zm-193.487.574l-5.62-8.654c.995-.646 1.995-1.281 2.997-1.906l5.458 8.758a170.87 170.87 0 00-2.835 1.802m200.423 4.103a185.198 185.198 0 00-2.75-1.91l5.815-8.525c.97.663 1.938 1.335 2.9 2.016zm-207.353.632l-6.023-8.378c.964-.693 1.933-1.375 2.906-2.047l5.864 8.49c-.922.637-1.837 1.28-2.747 1.935m214.052 4.362a175.873 175.873 0 00-2.651-2.034l6.207-8.244c.938.707 1.874 1.425 2.803 2.15zm-220.753.698l-6.41-8.088c.932-.737 1.867-1.464 2.808-2.181l6.255 8.206c-.888.678-1.773 1.366-2.653 2.063m227.232 4.615a197.884 197.884 0 00-2.57-2.168l6.584-7.944c.907.75 1.807 1.51 2.704 2.28zm-233.693.755l-6.778-7.781c.895-.78 1.795-1.548 2.7-2.308l6.638 7.899c-.858.722-1.712 1.45-2.56 2.19m239.914 4.854a209.78 209.78 0 00-2.462-2.282l6.942-7.631a189.1 189.1 0 012.597 2.406zm-246.106.798l-7.127-7.46a194.91 194.91 0 012.58-2.422l6.996 7.584a194.95 194.95 0 00-2.45 2.298m252.184 5.22c-.77-.801-1.553-1.597-2.342-2.388l-.168-.167 7.366-7.227-3.683 3.613 3.725-3.57c.895.894 1.724 1.738 2.542 2.589zm-258.103.709l-7.466-7.121c.81-.852 1.634-1.698 2.465-2.54l7.339 7.256c-.787.796-1.567 1.598-2.338 2.405m263.785 5.464a180.051 180.051 0 00-2.237-2.5l7.628-6.95c.796.876 1.583 1.755 2.36 2.642zm-269.425.734l-7.79-6.768c.773-.89 1.556-1.772 2.348-2.651l7.665 6.906c-.75.833-1.491 1.67-2.223 2.513m274.826 5.71a181.015 181.015 0 00-2.128-2.612l7.94-6.59a226.09 226.09 0 012.242 2.752zm-280.167.732l-8.098-6.394c.729-.924 1.468-1.842 2.218-2.755l7.974 6.548c-.707.862-1.405 1.729-2.094 2.6m285.244 5.94a173.275 173.275 0 00-1.994-2.696l8.239-6.212c.716.95 1.42 1.905 2.115 2.863zm-290.272.74l-8.387-6.01a195.65 195.65 0 012.083-2.851l8.279 6.158c-.667.897-1.327 1.797-1.975 2.703m295.04 6.18a183.94 183.94 0 00-1.87-2.796l8.525-5.814c.666.979 1.323 1.963 1.97 2.95zm-299.751.727l-8.66-5.61c.64-.988 1.29-1.97 1.95-2.948l8.558 5.766a192.37 192.37 0 00-1.848 2.792m304.175 6.392a166.737 166.737 0 00-1.728-2.872l8.787-5.407a177.111 177.111 0 011.836 3.048zm-308.556.734l-8.911-5.201a186.609 186.609 0 011.809-3.035l8.816 5.358c-.58.955-1.152 1.914-1.714 2.878m312.647 6.593a178.86 178.86 0 00-1.591-2.95l9.03-4.988c.576 1.04 1.14 2.084 1.69 3.132zm-316.688.73l-9.146-4.775c.544-1.043 1.1-2.082 1.663-3.116l9.062 4.934c-.536.982-1.062 1.969-1.58 2.958m320.423 6.78a163.853 163.853 0 00-1.451-3.022l9.26-4.554a181.011 181.011 0 011.538 3.207zm-324.111.726l-9.361-4.338c.493-1.066.997-2.13 1.51-3.19l9.288 4.496a204.398 204.398 0 00-1.437 3.032m327.485 6.948a159.061 159.061 0 00-1.304-3.086l9.465-4.108c.473 1.087.934 2.179 1.384 3.274zm-330.817.723l-9.56-3.885a182.08 182.08 0 011.366-3.271l9.482 4.072a161.9 161.9 0 00-1.288 3.084m333.826 7.105a164.677 164.677 0 00-1.157-3.144l9.65-3.658c.42 1.109.829 2.22 1.227 3.336zm-336.795.718l-9.734-3.428c.393-1.114.798-2.225 1.212-3.332l9.663 3.617a163.985 163.985 0 00-1.141 3.143m339.435 7.245a173.998 173.998 0 00-1.01-3.197l9.808-3.204c.368 1.127.724 2.256 1.07 3.388zm-342.035.717l-9.882-2.974a199.95 199.95 0 011.052-3.38l9.824 3.153a181.94 181.94 0 00-.994 3.2m344.292 7.357a167.991 167.991 0 00-.858-3.24l9.949-2.74c.314 1.143.616 2.287.908 3.434zm-346.516.714l-10.01-2.505c.288-1.147.586-2.29.895-3.431l9.958 2.698a177.046 177.046 0 00-.843 3.238m348.394 7.459c-.225-1.097-.46-2.191-.706-3.284l10.067-2.26a205.2 205.2 0 01.745 3.465zm-350.234.713l-10.117-2.037c.234-1.156.477-2.311.73-3.462l10.077 2.217c-.24 1.092-.47 2.186-.69 3.282m351.73 7.539a185.96 185.96 0 00-.552-3.313l10.16-1.793c.205 1.163.398 2.327.583 3.494zm-353.19.704l-10.2-1.553c.178-1.168.368-2.335.567-3.5l10.17 1.748c-.19 1.1-.37 2.203-.537 3.305m354.295 7.603a179.386 179.386 0 00-.396-3.336l10.234-1.31c.149 1.17.29 2.343.418 3.516zm-355.366.71l-10.261-1.085c.124-1.173.259-2.345.403-3.515l10.24 1.266c-.137 1.11-.265 2.222-.382 3.334m356.082 7.64a220.026 220.026 0 00-.24-3.351l10.284-.83c.096 1.177.18 2.354.254 3.533zm-356.766.709l-10.301-.603c.069-1.18.15-2.36.24-3.538l10.288.799a178.517 178.517 0 00-.227 3.342m357.093 7.663a170.397 170.397 0 00-.084-3.35l10.31-.361c.043 1.18.072 2.363.092 3.545zm-357.385.71l-10.318-.12c.013-1.183.039-2.365.074-3.546l10.315.317a169.993 169.993 0 00-.071 3.35m367.636 7.986l-10.315-.316c.035-1.118.059-2.233.072-3.351l10.319.12a199.73 199.73 0 01-.076 3.547m-377.853.754a208.57 208.57 0 01-.093-3.538l10.319-.182c.018 1.12.047 2.239.085 3.357zm377.37 8.093l-10.287-.8c.087-1.113.163-2.226.229-3.341l10.3.604c-.068 1.179-.15 2.36-.241 3.537m-376.856.756a198.767 198.767 0 01-.255-3.537l10.298-.648c.07 1.113.15 2.228.242 3.342zm375.964 8.059l-10.237-1.283c.137-1.107.265-2.217.383-3.325l10.26 1.085a182.578 182.578 0 01-.406 3.523m-375.037.756c-.151-1.174-.29-2.348-.421-3.525l10.258-1.13c.12 1.11.253 2.22.398 3.328zm373.737 8.002l-10.17-1.746c.19-1.105.37-2.21.54-3.314l10.198 1.569a187.87 187.87 0 01-.568 3.49m-372.398.759c-.207-1.164-.4-2.326-.585-3.493l10.19-1.613c.177 1.107.362 2.212.555 3.315zm370.687 7.938l-10.073-2.23c.24-1.092.47-2.183.692-3.277l10.113 2.039a161.986 161.986 0 01-.732 3.468m-368.94.757c-.261-1.153-.51-2.31-.748-3.468l10.107-2.082c.225 1.093.46 2.187.705 3.277zm366.826 7.845l-9.96-2.701c.293-1.076.575-2.156.846-3.236l10.009 2.506a181.788 181.788 0 01-.895 3.43m-364.674.755c-.314-1.14-.618-2.284-.91-3.43l9.999-2.55c.276 1.083.563 2.163.86 3.243zm362.156 7.745l-9.817-3.177c.344-1.062.675-2.125.996-3.19l9.878 2.977a176.568 176.568 0 01-1.057 3.39m-359.603.749a164.63 164.63 0 01-1.071-3.394l9.87-3a168.09 168.09 0 001.009 3.19zm356.696 7.604l-9.664-3.614c.39-1.05.774-2.1 1.147-3.152l9.727 3.443c-.393 1.11-.797 2.217-1.21 3.323m-353.744.76a216.792 216.792 0 01-1.226-3.324l9.714-3.483c.376 1.053.764 2.103 1.162 3.15zm350.444 7.454l-9.485-4.064c.44-1.026.872-2.057 1.293-3.092l9.556 3.893c-.445 1.092-.9 2.18-1.364 3.263m-347.1.763a182.458 182.458 0 01-1.382-3.267l9.539-3.933c.426 1.035.863 2.064 1.308 3.092zm343.417 7.287l-9.283-4.504c.489-1.008.969-2.017 1.437-3.028l9.36 4.339a193.253 193.253 0 01-1.514 3.193m-339.687.769a212.871 212.871 0 01-1.537-3.2l9.34-4.383c.476 1.013.962 2.022 1.457 3.028zm335.627 7.095l-9.06-4.937c.535-.981 1.06-1.967 1.578-2.956l9.146 4.776c-.544 1.043-1.1 2.083-1.664 3.117m-331.52.774a187.652 187.652 0 01-1.69-3.125l9.127-4.816c.522.987 1.053 1.97 1.595 2.954zm327.09 6.894l-8.81-5.37c.582-.953 1.153-1.912 1.714-2.872l8.91 5.203a196.274 196.274 0 01-1.813 3.039m-322.616.773a190.182 190.182 0 01-1.834-3.042l8.887-5.243c.568.964 1.145 1.922 1.733 2.877zm317.84 6.672l-8.551-5.777c.626-.925 1.24-1.854 1.847-2.788l8.655 5.616c-.64.987-1.291 1.97-1.951 2.949m-313.007.778a185.99 185.99 0 01-1.98-2.961l8.639-5.643c.609.934 1.232 1.863 1.862 2.786zm307.88 6.435l-8.263-6.18c.665-.89 1.322-1.787 1.969-2.69l8.386 6.01c-.687.959-1.384 1.913-2.092 2.86m-302.7.779a194.265 194.265 0 01-2.11-2.856l8.35-6.06a169.43 169.43 0 002 2.702zm297.254 6.173l-7.977-6.542c.71-.867 1.41-1.735 2.102-2.608l8.088 6.405c-.73.92-1.466 1.835-2.213 2.745m-291.74.788a195.819 195.819 0 01-2.247-2.757l8.065-6.44c.698.876 1.405 1.744 2.122 2.607zm285.95 5.93l-7.654-6.92c.75-.83 1.49-1.665 2.222-2.505l7.786 6.772c-.775.89-1.56 1.773-2.353 2.653m-280.125.757a188.527 188.527 0 01-2.361-2.638l7.749-6.811c.737.838 1.484 1.67 2.24 2.5zm274.035 5.682l-7.32-7.272c.788-.791 1.563-1.59 2.33-2.395l7.467 7.12c-.814.856-1.64 1.706-2.477 2.547m-267.912.724l-.067-.067a193.24 193.24 0 01-2.42-2.464l7.436-7.154c.749.779 1.51 1.553 2.279 2.322zm261.537 5.42l-6.98-7.597c.82-.754 1.633-1.516 2.443-2.29l7.127 7.46c-.857.82-1.72 1.63-2.59 2.428m-255.127.695a195.68 195.68 0 01-2.598-2.412l7.09-7.496c.813.769 1.633 1.53 2.457 2.28zm248.469 5.157l-6.627-7.906c.856-.72 1.708-1.446 2.554-2.185l6.778 7.782a200.25 200.25 0 01-2.705 2.309m-241.78.655c-.908-.752-1.81-1.513-2.707-2.284l6.728-7.826a184.72 184.72 0 002.562 2.167zm234.842 4.89l-6.251-8.208c.889-.677 1.774-1.364 2.652-2.061l6.409 8.088c-.932.738-1.868 1.465-2.81 2.182m-227.91.59a200.023 200.023 0 01-2.797-2.147l6.35-8.132a203.86 203.86 0 002.658 2.04zm220.709 4.628l-5.841-8.505c.919-.631 1.83-1.273 2.737-1.926l6.023 8.38a174.41 174.41 0 01-2.92 2.05m-213.521.53a174.272 174.272 0 01-2.907-2.026l5.982-8.407c.908.647 1.822 1.283 2.739 1.908zm206.099 4.337l-5.438-8.77c.947-.585 1.889-1.185 2.827-1.795l5.619 8.656c-.998.647-2 1.283-3.008 1.909m-198.671.476a168.842 168.842 0 01-3.001-1.885l5.575-8.682c.939.603 1.88 1.194 2.827 1.777zm191.03 4.029l-5.032-9.01c.976-.545 1.95-1.1 2.917-1.663l5.2 8.91a181.393 181.393 0 01-3.085 1.763m-183.392.428a207.8 207.8 0 01-3.074-1.735l5.143-8.944c.97.557 1.944 1.108 2.922 1.647zm175.546 3.713l-4.608-9.233a211.79 211.79 0 003-1.53l4.763 9.154a203.353 203.353 0 01-3.155 1.609m-167.697.383a176.72 176.72 0 01-3.164-1.596l4.736-9.166a176.96 176.96 0 002.983 1.502zm159.66 3.382l-4.161-9.441c1.023-.452 2.044-.912 3.063-1.383l4.33 9.365c-1.073.497-2.151.984-3.231 1.459m-151.625.338a193.53 193.53 0 01-3.236-1.443l4.292-9.384c1.016.465 2.034.918 3.055 1.362zm143.414 3.044l-3.701-9.63c1.045-.401 2.084-.812 3.12-1.234l3.883 9.56c-1.097.445-2.197.88-3.302 1.304m-135.217.29a181.373 181.373 0 01-3.298-1.287l3.845-9.576c1.037.416 2.078.823 3.12 1.22zm126.864 2.7l-3.241-9.796c1.06-.35 2.118-.712 3.172-1.083l3.43 9.73a187.5 187.5 0 01-3.361 1.15m-118.51.25a179.182 179.182 0 01-3.36-1.135l3.393-9.743c1.053.366 2.109.723 3.169 1.068zm110.034 2.343l-2.788-9.935c1.077-.302 2.152-.614 3.223-.935l2.969 9.88c-1.132.342-2.267.67-3.404.99m-101.56.209a202.56 202.56 0 01-3.401-.973l2.925-9.895c1.072.318 2.148.625 3.225.922zm92.962 1.98l-2.308-10.057c1.089-.25 2.175-.51 3.26-.782l2.499 10.012c-1.15.286-2.3.563-3.451.827m-84.367.173c-1.151-.261-2.3-.531-3.445-.812l2.455-10.022c1.089.267 2.177.524 3.267.77zm75.684 1.612l-1.84-10.154a171.86 171.86 0 003.293-.628l2.032 10.117c-1.16.233-2.323.453-3.485.665m-66.997.136a173.563 173.563 0 01-3.485-.652l1.992-10.123c1.095.215 2.192.42 3.29.615zm58.246 1.242l-1.374-10.227c1.11-.148 2.219-.307 3.325-.475l1.552 10.2c-1.167.178-2.336.345-3.503.502m-49.493.098a181.025 181.025 0 01-3.505-.486l1.508-10.207c1.107.163 2.215.318 3.324.462zm40.678.868l-.89-10.281c1.115-.096 2.23-.201 3.344-.317l1.07 10.26c-1.173.123-2.348.236-3.524.338m-31.866.064a189.827 189.827 0 01-3.532-.324l1.038-10.265c1.113.113 2.225.214 3.337.304zm23.02.49l-.406-10.311c1.115-.044 2.232-.097 3.346-.163l.604 10.3c-1.18.07-2.361.127-3.543.174m-14.174.027a207.965 207.965 0 01-3.535-.156l.544-10.305c1.116.059 2.235.11 3.353.15zm6.709.12l-1.396-.006.077-10.318 1.319.005c.677 0 1.352-.003 2.028-.012l.125 10.319c-.717.008-1.436.012-2.153.012" fill="#f9082a"/></g></g></svg>