<?xml version="1.0" encoding="utf-8"?>
<!-- Generator: Adobe Illustrator 18.0.0, SVG Export Plug-In . SVG Version: 6.00 Build 0)  -->
<!DOCTYPE svg PUBLIC "-//W3C//DTD SVG 1.1//EN" "http://www.w3.org/Graphics/SVG/1.1/DTD/svg11.dtd">
<svg version="1.1" id="Layer_1" xmlns="http://www.w3.org/2000/svg" xmlns:xlink="http://www.w3.org/1999/xlink" x="0px" y="0px"
	 viewBox="0 0 750 750" enable-background="new 0 0 750 750" xml:space="preserve">
<path d="M524.8,717.4c37.9-52.1-29-137.2,8.1-190c17.5-24.9,50.3-29.6,79.3-34.1c34.5-5.4,70.2-14.3,96.3-38.6
	c27.1-25.3,40.2-65.2,37.5-103.3c-2.7-38.1-20.1-74.2-45-101.9c-24.7-27.5-57-48-75.2-80.7c-15.1-27.3-18.7-60.1-32-88.4
	C573.4,36.5,528.7,6.6,482.5,5.8s-91.8,27.5-113.6,70.6C323.7,30.9,256,7.4,196.6,27.6S93.1,117,107.7,181.1
	c7.4,32.6,28.2,65.1,18.1,96.8c-10.5,33.2-48.1,45.2-74.2,66.7C21.5,369.4,5.4,410,3.7,450.3s9.7,80.1,26.8,116.1
	c17.8,37.6,49.2,75.7,88.7,72.3c26.6-2.3,49.3-23.4,75.9-25.8c41.1-3.6,71.9,36.2,102.8,65.1c41.6,38.9,95.8,62.5,151.2,65.9
	C476.8,745.6,507.9,740.6,524.8,717.4z"/>
</svg>
