<?xml version="1.0" encoding="utf-8"?>
<!-- Generator: Adobe Illustrator 18.0.0, SVG Export Plug-In . SVG Version: 6.00 Build 0)  -->
<!DOCTYPE svg PUBLIC "-//W3C//DTD SVG 1.1//EN" "http://www.w3.org/Graphics/SVG/1.1/DTD/svg11.dtd">
<svg version="1.1" id="Layer_1" xmlns="http://www.w3.org/2000/svg" xmlns:xlink="http://www.w3.org/1999/xlink" x="0px" y="0px"
	 viewBox="0 0 1000 439" enable-background="new 0 0 1000 439" xml:space="preserve">
<g>
	<g>
		<g>
			<path fill="#F9082A" d="M4.8,433.4V4.4h54.4V385h239.2v48.3H4.8z"/>
			<path fill="#F9082A" d="M316.6,215.9c0-25.8,4.5-51.4,13.6-77c9.1-25.6,22.4-48.5,39.9-68.9c17.5-20.3,39-36.7,64.3-49.2
				C459.7,8.3,488.5,2,520.8,2c38.3,0,71.1,8.7,98.5,26c27.4,17.3,47.7,39.9,61,67.7l-42.9,27.8c-6.5-13.7-14.2-25.2-23.3-34.4
				c-9.1-9.3-18.9-16.7-29.6-22.4c-10.7-5.6-21.7-9.7-32.9-12.1c-11.3-2.4-22.4-3.6-33.2-3.6c-23.8,0-44.8,4.9-63.1,14.8
				c-18.3,9.9-33.7,22.8-46.2,38.7c-12.5,15.9-21.9,33.8-28.1,53.8c-6.2,19.9-9.4,40-9.4,60.1c0,22.6,3.7,44,11.2,64.3
				c7.4,20.3,17.8,38.4,31.1,54.1c13.3,15.7,29,28.2,47.1,37.5c18.1,9.3,37.9,13.9,59.2,13.9c11.3,0,22.9-1.4,34.7-4.2
				c11.9-2.8,23.3-7.3,34.1-13.6c10.9-6.2,21-14.1,30.5-23.6c9.5-9.5,17.2-20.8,23.3-34.1l45.3,24.8c-6.9,16.1-16.4,30.3-28.7,42.6
				c-12.3,12.3-26.2,22.7-41.7,31.1c-15.5,8.5-31.9,14.9-49.2,19.3c-17.3,4.4-34.2,6.6-50.7,6.6c-29.4,0-56.4-6.4-81-19.3
				C412.2,404.8,391,388,373,367.2c-17.9-20.7-31.8-44.3-41.7-70.7C321.5,270.2,316.6,243.3,316.6,215.9z"/>
		</g>
	</g>
	<g>
		<path fill="#A7A9AC" d="M868.5,433.4v-67.7h44.7v67.7H868.5z"/>
	</g>
	<g>
		<path fill="#A7A9AC" d="M966.7,64.4c-3.1-3.6-7.2-7-12.3-10.4c-5.1-3.3-10.9-6.3-17.3-9c-6.4-2.7-13.4-4.9-20.9-6.5
			c-7.6-1.7-15.4-2.5-23.6-2.5c-21.3,0-36.8,4-46.7,11.9C836,55.8,831,66.7,831,80.5c0,7.4,1.4,13.6,4.2,18.5
			c2.8,4.9,7.2,9,13.3,12.5c6,3.5,13.5,6.5,22.5,9c9,2.6,19.6,5.3,31.9,8.1c14.1,3.1,26.8,6.6,38.2,10.6c11.4,4,21.1,8.9,29.2,14.8
			c8.1,5.9,14.2,13.1,18.5,21.5c4.2,8.5,6.3,18.8,6.3,31.1c0,13.1-2.6,24.4-7.7,34c-5.1,9.6-12.1,17.6-20.9,23.8
			c-8.8,6.3-19.3,10.9-31.3,13.8c-12,2.9-25.1,4.4-39.2,4.4c-21,0-40.9-3.3-59.8-9.8c-18.8-6.5-35.9-16.1-51.3-28.6l16.5-29.2
			c4.1,4.4,9.4,8.7,16,13.1c6.5,4.4,14,8.3,22.3,11.7c8.3,3.5,17.3,6.3,26.9,8.5c9.6,2.2,19.7,3.3,30.2,3.3
			c19.5,0,34.6-3.5,45.4-10.4c10.8-6.9,16.1-17.3,16.1-31.1c0-7.7-1.7-14.2-5.2-19.4c-3.5-5.3-8.5-9.8-15.2-13.6
			c-6.7-3.8-14.9-7.2-24.8-10.2c-9.9-2.9-21.1-6-33.6-9c-13.8-3.3-26-6.9-36.5-10.8c-10.5-3.8-19.3-8.5-26.3-13.8
			c-7.1-5.4-12.4-11.9-15.9-19.6c-3.6-7.7-5.4-16.9-5.4-27.7c0-13.1,2.4-24.6,7.3-34.6c4.9-10,11.7-18.4,20.4-25.4
			c8.7-6.9,19.1-12.1,31.1-15.6c12-3.5,25.1-5.2,39.2-5.2c18.4,0,35.1,2.8,50,8.5c14.9,5.6,28.1,13.2,39.6,22.7L966.7,64.4z"/>
	</g>
</g>
</svg>
