<?xml version="1.0" encoding="utf-8"?>
<!-- Generator: Adobe Illustrator 18.0.0, SVG Export Plug-In . SVG Version: 6.00 Build 0)  -->
<!DOCTYPE svg PUBLIC "-//W3C//DTD SVG 1.1//EN" "http://www.w3.org/Graphics/SVG/1.1/DTD/svg11.dtd">
<svg version="1.1" id="Layer_1" xmlns="http://www.w3.org/2000/svg" xmlns:xlink="http://www.w3.org/1999/xlink" x="0px" y="0px"
	 viewBox="0 0 900 216.4" enable-background="new 0 0 900 216.4" xml:space="preserve">
<g>
	<defs>
		<rect id="SVGID_1_" width="900" height="216.4"/>
	</defs>
	<clipPath id="SVGID_2_">
		<use xlink:href="#SVGID_1_"  overflow="visible"/>
	</clipPath>
	<g clip-path="url(#SVGID_2_)">
		<defs>
			<rect id="SVGID_3_" width="900" height="216.4"/>
		</defs>
		<clipPath id="SVGID_4_">
			<use xlink:href="#SVGID_3_"  overflow="visible"/>
		</clipPath>
		<g opacity="0.6" clip-path="url(#SVGID_4_)">
			<g>
				<defs>
					<rect id="SVGID_5_" x="83.5" y="14.4" width="66.7" height="145.1"/>
				</defs>
				<clipPath id="SVGID_6_">
					<use xlink:href="#SVGID_5_"  overflow="visible"/>
				</clipPath>
				<polygon clip-path="url(#SVGID_6_)" fill="#FFFFFF" points="105.9,14.4 105.9,14.4 105.8,14.4 92.5,29.8 92.5,29.8 92.5,29.9 
					83.5,40.3 116.8,79.1 97.9,95.5 92.5,89.2 92.5,159.5 119.2,159.5 119.2,68.2 142.6,95.5 150.2,88.9 138.9,79.1 150.2,66 
					122.5,33.7 122.5,33.7 119.8,30.5 				"/>
			</g>
		</g>
		<g opacity="0.6" clip-path="url(#SVGID_4_)">
			<g>
				<defs>
					<rect id="SVGID_7_" x="150.2" y="14.4" width="66.7" height="145.1"/>
				</defs>
				<clipPath id="SVGID_8_">
					<use xlink:href="#SVGID_7_"  overflow="visible"/>
				</clipPath>
				<polygon clip-path="url(#SVGID_8_)" fill="#FFFFFF" points="194.6,14.4 194.6,14.4 194.6,14.4 181.3,29.8 181.3,29.8 
					181.3,29.9 150.2,66 161.5,79.1 150.2,88.9 157.9,95.5 181.3,68.4 181.3,159.5 207.9,159.5 207.9,89.3 207.9,89.3 202.5,95.5 
					183.6,79.1 207.8,50.9 216.9,40.3 211.2,33.7 208.6,30.6 				"/>
			</g>
		</g>
		<g opacity="0.4" clip-path="url(#SVGID_4_)">
			<g>
				<defs>
					<rect id="SVGID_9_" x="5.5" y="14.4" width="78" height="145.1"/>
				</defs>
				<clipPath id="SVGID_10_">
					<use xlink:href="#SVGID_9_"  overflow="visible"/>
				</clipPath>
				<polygon clip-path="url(#SVGID_10_)" fill="#FFFFFF" points="61.2,14.4 61.2,14.4 47.9,29.8 47.8,29.8 47.8,29.9 5.5,79.1 
					24.5,95.5 47.8,68.4 47.8,159.5 74.5,159.5 74.5,89.3 69.1,95.5 50.2,79.1 83.5,40.3 77.8,33.7 75.5,31 61.2,14.4 				"/>
			</g>
		</g>
		<g opacity="0.8" clip-path="url(#SVGID_4_)">
			<g>
				<defs>
					<rect id="SVGID_11_" x="50.2" y="40.3" width="66.6" height="55.2"/>
				</defs>
				<clipPath id="SVGID_12_">
					<use xlink:href="#SVGID_11_"  overflow="visible"/>
				</clipPath>
				<polygon clip-path="url(#SVGID_12_)" fill="#FFFFFF" points="83.5,40.3 83.5,40.3 50.2,79.1 69.1,95.5 74.5,89.3 74.5,89.3 
					74.5,68.2 83.6,78.8 92.5,68.4 92.5,89.2 97.9,95.5 116.8,79.1 				"/>
			</g>
		</g>
		<g opacity="0.4" clip-path="url(#SVGID_4_)">
			<g>
				<defs>
					<rect id="SVGID_13_" x="216.9" y="14.4" width="78" height="145.1"/>
				</defs>
				<clipPath id="SVGID_14_">
					<use xlink:href="#SVGID_13_"  overflow="visible"/>
				</clipPath>
				<polygon clip-path="url(#SVGID_14_)" fill="#FFFFFF" points="239.3,14.4 239.3,14.4 239.2,14.4 225.9,29.8 225.9,29.8 
					225.9,29.9 216.9,40.3 250.2,79.1 231.3,95.5 225.9,89.2 225.9,89.2 225.9,159.5 252.6,159.5 252.6,68.2 276,95.5 294.9,79.1 
					255.9,33.7 253.6,31 				"/>
			</g>
		</g>
		<g opacity="0.8" clip-path="url(#SVGID_4_)">
			<g>
				<defs>
					<rect id="SVGID_15_" x="183.6" y="40.3" width="66.6" height="55.2"/>
				</defs>
				<clipPath id="SVGID_16_">
					<use xlink:href="#SVGID_15_"  overflow="visible"/>
				</clipPath>
				<polygon clip-path="url(#SVGID_16_)" fill="#FFFFFF" points="216.9,40.3 207.8,50.9 183.6,79.1 202.5,95.5 207.9,89.3 
					207.9,68.2 217,78.8 225.9,68.4 225.9,89.2 231.3,95.5 250.2,79.1 				"/>
			</g>
		</g>
	</g>
	<polygon clip-path="url(#SVGID_2_)" fill="#FFFFFF" points="114.3,5.4 96.5,25.2 134.4,70.9 136.9,74 137.7,75 137.7,159.1 
		164.3,159.1 164.3,74.9 204.7,26.1 187.7,6.6 151,50.9 	"/>
	<g clip-path="url(#SVGID_2_)">
		<defs>
			<rect id="SVGID_17_" width="900" height="216.4"/>
		</defs>
		<clipPath id="SVGID_18_">
			<use xlink:href="#SVGID_17_"  overflow="visible"/>
		</clipPath>
		<path clip-path="url(#SVGID_18_)" fill="#FFFFFF" d="M364.5,40.6c-3.8,8.9-9.9,25.4-18.4,49.3c-10.2,28.3-15.5,46.6-15.8,54.8
			c-0.1,2.4,0.5,5.2,2,8.4c1.4,3.2,2.1,4.9,2,5c0,1.9-1,2.9-2.9,2.7h-3.1c-2.7,0-5-2.3-6.8-6.9c-1.3-3.3-2-5.8-1.9-7.4
			c0.1-5.5,1.2-11.9,3.2-19.4c4.3-14.7,10-31.9,17-51.4c4.7-12.4,7.9-24.7,9.9-36.6c0.2-1.3,1.4-2.9,3.5-5c2.1-2.1,3.5-3.1,4.3-3.1
			c1.5,0.1,3.2,1.3,5.1,3.6L364.5,40.6z"/>
		<path clip-path="url(#SVGID_18_)" fill="#FFFFFF" d="M406.6,61.8c-1.8,2.4-5.4,5.6-10.9,9.8c-5.4,4.1-8.8,6.2-10.2,6.2
			c-1.8,0-3.5-1-5-3c-1.5-2-2.3-3.9-2.3-5.6c0-0.7,0.1-1.2,0.3-1.5c2.3-1.3,4.5-2.5,6.6-3.8c4.6-2.4,8.7-3.9,12.5-4.5
			c3.8-0.6,5.8-0.9,5.9-0.9C404.4,58.4,405.4,59.5,406.6,61.8 M401.3,130c0,3.2-4.2,8.7-12.7,16.4c-8.5,7.8-13.9,11.7-16.3,11.7
			c-0.4,0-1.7,0.1-3.8,0.2c-2.1,0.2-3.4,0.3-4,0.3c-3.5,0-6.8-1.9-9.7-5.8c-3-3.9-4.4-7.7-4.4-11.3c0-4.2,2.6-12.3,7.7-24.2
			c5.2-12.3,9.1-18.5,11.6-18.5c3.6,0,6.4,2.2,8.2,6.5c-0.6,1.3-3.9,7.5-10,18.7c-4,7.2-6,13.2-6,18c0,1,0.1,2,0.2,2.9
			c0.9,1.6,2.9,2.4,6,2.4c4.2,0,10-2.9,17.4-8.7c8.6-6.7,13.7-10.4,15.2-11c0,0.1,0.1,0.4,0.4,0.9
			C401.1,128.9,401.3,129.4,401.3,130"/>
		<path clip-path="url(#SVGID_18_)" fill="#FFFFFF" d="M458.2,103.1c0,1.6-1.4,3.2-4.1,4.8c-13.2,3.1-21.1,4.7-23.7,5
			c-5.7,0.7-11.5,1.9-17.5,3.8c-3.8,9.9-8.7,25.1-14.8,45.4c-6.3,21.1-11.2,36.4-14.6,45.9c-0.8,2.1-2.1,3.1-3.9,3.1
			c-2.4,0-4.4-1-6-3.1c-1.1-1.5-1.7-2.8-1.7-3.9c0,0.3,4.4-11.2,13.2-34.6c8.8-23.4,13.2-37.4,13.2-42.1c0-0.6-1.5-2.4-4.6-5.5
			c-2-2.5-3.1-4.6-3.1-6.3c0-2.5,2-4.6,6.1-6.3c2.6-0.8,5.3-1.7,8-2.6c4.6-11.1,11.4-27.8,20.3-50.2c2.4-6.5,5.4-12.5,9-18
			c1.4-1.9,3.7-4.2,7-6.7c3.8-2.8,6.7-4.3,8.9-4.3c2.7,0,5.1,2.1,7.1,6.3c1.8,3.5,2.7,6.6,2.6,9.1c0,3.7-1,7.7-2.9,12.2
			c-2.2,5-4.4,7.5-6.8,7.5c-0.6,0-1.9-0.5-3.9-1.5c1.2-7.9,1.7-11.6,1.7-11.1c0-3-0.7-4.3-2.2-4.1c-1.4,0.1-4.3,4.1-8.8,12
			c-4.1,7-6.9,12.4-8.5,16.4c-2.6,5.9-6.3,15.7-10.9,29.1c4.9-0.3,11.2-1,19.1-1.9c7.3-1,11-1.5,11.1-1.5c0.4,0,1.8,0.1,4.3,0.4
			c2.5,0.3,4.4,0.4,5.8,0.4c0,0.1,0.1,0.4,0.4,0.8C458,101.9,458.2,102.4,458.2,103.1"/>
		<path clip-path="url(#SVGID_18_)" fill="#FFFFFF" d="M488.1,105.5c-0.9-0.9-1.7-1.4-2.4-1.4c-4.9,0-10.6,3.1-17,9.4
			c-5.4,5.5-9.1,10.5-10.9,15.1c3.4,0,6.6-0.9,9.7-2.6c1.5-0.8,4.6-2.9,9.3-6.4C481.5,116.1,485.3,111.4,488.1,105.5 M499.6,102.9
			c0,6.5-5.4,14.4-16.2,23.6c-10.8,9.3-20.5,14.2-29.1,14.7c0.3,3.8,2.2,7,5.6,9.6c2.7,2.1,5.5,3.1,8.3,3.1c3.2,0,8.1-1.4,14.8-4.1
			c7.6-3.2,11.4-4.9,11.4-5c1.6-0.3,3,0.1,4.2,1.4c-1.9,2.7-6.9,6.3-14.8,10.7c-7.9,4.4-13.9,6.6-17.7,6.6c-6.7,0-12.1-2.5-16.3-7.5
			c-3.6-4.5-5.5-9.7-5.6-15.6c-0.2-9.1,4.8-19.6,15-31.3c10.2-11.8,19.9-17.6,29.1-17.6c2.5,0,5,1.3,7.5,3.8
			C498.3,97.7,499.6,100.3,499.6,102.9"/>
		<path clip-path="url(#SVGID_18_)" fill="#FFFFFF" d="M894.4,98c0.4-4.1-0.5-8.2-2.9-12.2c-2.7-4.8-6.4-7.2-11.1-7.2
			c-4.7-0.1-8.6,2.2-11.7,6.9c-3.2,4.7-4.8,10-4.8,15.7c0,1.1,0.1,2.2,0.2,3.3c0,0.1,1.1,5.7,3.4,16.8c2.1,10.5,3.2,16.1,3,16.8
			c-0.2,4.4-1.8,8.5-4.7,12.5c-2.9,4-6.1,6-9.5,6c-3.3,0-4.9-1.3-4.9-3.9c0-2,1-5.1,2.9-9.1c1.1-2.3,2.3-4.6,3.4-6.9
			c-1.6-0.1-3-0.2-4.1-0.2c-1.8,1-3.6,2.1-5.4,3.2c-1.8,1.5-3.2,3.7-4.5,6.4c-1.2-1.1-2.5-1.5-4-1.2c0,0.1-3.8,1.8-11.4,5
			c-6.7,2.7-11.6,4.1-14.8,4.1c-2.8,0-5.6-1-8.3-3.1c-3.4-2.6-5.3-5.8-5.6-9.6c8.6-0.6,18.3-5.5,29.1-14.7
			c10.8-9.3,16.2-17.1,16.2-23.6c0-2.6-1.3-5.2-3.8-7.7c-2.5-2.5-5-3.8-7.5-3.8c-9.2,0-18.9,5.9-29.1,17.6
			c-10.2,11.8-15.2,22.2-15,31.3c0.1,5.9,2,11.1,5.6,15.6c4.2,5,9.7,7.5,16.4,7.5c3.8,0,9.8-2.2,17.7-6.6
			c7.4-4.1,12.1-7.4,14.3-10.1c-0.6,1.3-1.2,2.5-1.6,4c-0.5,1.6-0.7,3.1-0.7,4.6c0,3.8,1.3,6.7,3.9,8.9c2.6,2.2,6,3.2,10,3.2
			c7.3,0,13.3-2.7,18.2-8.2c3.9-4.5,6.1-9.4,6.6-14.9c0.5-4.8-0.3-12.6-2.4-23.3c-2-10.7-3-16.7-2.9-17.8c0.4-4.3,0.7-6.7,0.8-7
			c1-3,3.2-4.3,6.5-3.9c1.4,0.1,2.3,0.6,2.7,1.4c1.4,4,2.5,6.3,3.4,6.8c2,1.4,3.4,2.2,3.9,2.4c0.1-0.7,0.5-1.6,1.3-2.7
			C894,99.4,894.4,98.5,894.4,98 M803.1,128.6c1.8-4.6,5.5-9.6,10.9-15.1c6.5-6.3,12.2-9.4,17-9.4c0.7,0,1.5,0.5,2.4,1.4
			c-2.8,5.9-6.6,10.7-11.3,14.1c-4.7,3.5-7.8,5.6-9.3,6.4C809.7,127.8,806.5,128.6,803.1,128.6 M787.6,108.6c1.4-4.2,2-6.4,2-6.5
			c0-2.6-0.9-6-2.7-10.1c-2.4-5.5-5.2-8.2-8.5-8.2c-1.4,0-3.7,0.6-6.8,1.7c-0.9,1.9-2.1,3.3-3.6,4.1c-8,4.1-15.5,11.3-22.5,21.4
			c-6,8.6-9.4,16.7-10.6,24.3c-1.3,1-2.7,2-4.3,3.3c-7.4,5.8-13.2,8.7-17.4,8.7c-3.1,0-5.1-0.8-5.9-2.4c-0.1-0.9-0.2-1.9-0.2-2.9
			c0-4.8,2-10.8,6-18c6.1-11.2,9.5-17.4,10-18.7c-1.8-4.3-4.5-6.5-8.2-6.5c-2.5,0-6.4,6.2-11.6,18.5c-5.1,11.9-7.7,19.9-7.7,24.2
			c0,3.7,1.5,7.4,4.4,11.3c3,3.9,6.2,5.8,9.7,5.8c0.6,0,1.9-0.1,4-0.2c2.1-0.2,3.4-0.2,3.8-0.2c2.4,0,7.8-3.9,16.3-11.7
			c0.4-0.4,0.7-0.7,1.2-1.1c0.7,5,2.2,9.3,5.1,12.4c3.9,4.1,9.4,6.2,16.7,6.2c4.8,0,11.2-2.6,19.2-7.9c1.6-1.1,3.4-3,5.3-5.7
			c1.7-2.3,2.5-3.6,2.5-3.9c0-0.7-0.3-1-0.9-1.1c-0.6-0.1-1.2-0.1-1.9-0.3c-0.7,0.3-1.3,0.7-1.9,1.2c-0.5,0.5-1,0.7-1.5,0.7
			c-0.4,0-1.5,0.3-3.3,0.9c-2.7,1.4-4.9,2.6-6.5,3.6c-2.8,1.5-6.5,2.2-10.9,2.2c-3.8,0-6.8-1.2-9.1-3.7c-2.3-2.5-3.6-5.4-3.7-8.8
			c-0.1-7.5,3.7-16.3,11.4-26.3c7.7-10,14.3-15.2,19.8-15.5c1,0.5,1.8,1.9,2.2,4.2c0.5,2.3,0.8,3.6,0.9,3.9
			C780.6,109.2,783.6,109.6,787.6,108.6 M752,61.8c-1.1-2.3-2.2-3.4-3.1-3.4c-0.1,0-2.1,0.3-5.9,0.9c-3.8,0.6-8,2.1-12.5,4.5
			c-2.1,1.3-4.4,2.5-6.6,3.8c-0.2,0.3-0.3,0.9-0.3,1.5c0,1.7,0.8,3.6,2.3,5.6c1.5,2,3.2,3,5,3c1.4,0,4.8-2.1,10.2-6.2
			C746.5,67.5,750.1,64.2,752,61.8 M686.9,132c2.8-9,4.2-17.4,4.2-25c0-12.1-4.2-18-12.8-17.8c-1.2,0-3.7,0.9-7.5,2.7
			c-4.4,2.3-7.9,4.8-10.4,7.5c-4.1,4.3-8.3,10.1-12.4,17.3c-5.1,8.9-7.7,15.9-7.7,20.9c0,2.4,0.3,4.5,0.6,6.6
			c-1.4,0.5-3.7,1.8-7.7,4.7c-4.7,3.4-8.6,5.1-11.8,5.1c-1.9,0-3.6-1.1-5-3.3c-1.4-2.2-2-4.8-1.8-7.9c0.2-3.1,2.5-11.5,6.8-25.2
			c4.2-13.4,6.3-20.5,6.3-21.4c0-5.3-1.7-7.9-5.3-7.9c-3,0-9.3,5.2-18.8,15.6c-4.5,5.4-9.1,10.7-13.6,15.9c1-4.3,5.6-17.8,13.8-40.3
			c7.7-21.2,11.6-32.4,11.6-33.6c0-4.2-1.4-6.3-4.1-6.3c-4.3,0-7.1,2.2-8.3,6.7c-0.8,3.8-1.5,7.5-2.2,11.1
			c-4.8,13.9-8.7,25.5-11.9,34.8c-1.8,4.9-5.5,14.9-11,30c-4.6,12.3-7,18.7-7,19c0,4.2,1.7,6.3,5.3,6.3c0.6,0,1.1-0.1,1.7-0.3
			c0.6-0.2,1.1-0.3,1.5-0.3c1.2,0,6-5.1,14.1-15.4c9.3-11.5,15.6-18.6,18.9-21.3c-0.5,2.9-1.9,8.5-4.4,16.8
			c-2.2,7.4-3.2,12.4-3.2,14.9c0,15.2,5.8,22.8,17.5,22.8c2.1,0,6-2.3,11.7-6.9c3.9-3.1,6.6-5.8,8.3-8.2c0.4,1.3,0.7,2.8,1.3,4
			c2.7,6.1,6.9,9.1,12.4,9.1c5.7,0,12-3.8,18.9-11.3C680.8,144.8,684.9,138.3,686.9,132 M681.6,108.1c0,6.7-1.9,14.5-5.7,23.3
			c-1.4,3.4-3.6,7.3-6.8,11.6c-4.4,6.1-8.1,9-11,8.7c-2.4-0.1-4.2-1.6-5.4-4.6c-1-2.4-1.5-5-1.5-7.9c0.1-3.5,2.2-9.4,6.3-17.5
			c4.8-9.4,9.3-14.1,13.5-14.1c0.7,0,1,0.2,1,0.7c0,0.5,0.3,0.7,0.8,0.7c0.7,0,3.1-2.2,7.2-6.5C681.1,102.8,681.6,104.6,681.6,108.1
			 M570.4,108.6c1.4-4.2,2-6.4,2-6.5c0-2.6-0.9-6-2.7-10.1c-2.4-5.5-5.2-8.2-8.5-8.2c-1.4,0-3.6,0.6-6.8,1.7
			c-0.9,1.9-2.1,3.3-3.6,4.1c-8.1,4.1-15.6,11.3-22.5,21.4c-7.4,10.6-11.1,20.4-11.1,29.5c0,7.4,1.9,13.2,5.8,17.3
			c3.9,4.1,9.4,6.2,16.7,6.2c4.8,0,11.2-2.6,19.2-7.9c1.6-1.1,3.3-3,5.3-5.7c1.7-2.3,2.6-3.6,2.6-3.9c0-0.7-0.3-1-0.9-1.1
			c-0.5-0.1-1.2-0.1-1.9-0.3c-0.7,0.3-1.3,0.7-1.9,1.2c-0.6,0.5-1.1,0.7-1.4,0.7c-0.4,0-1.5,0.3-3.3,0.9c-2.7,1.4-4.9,2.6-6.5,3.6
			c-2.8,1.5-6.5,2.2-10.9,2.2c-3.8,0-6.8-1.2-9.1-3.7c-2.3-2.5-3.5-5.4-3.7-8.8c-0.1-7.5,3.7-16.3,11.4-26.3
			c7.7-10,14.3-15.2,19.8-15.5c1,0.5,1.8,1.9,2.2,4.2c0.5,2.3,0.7,3.6,0.9,3.9C563.5,109.2,566.4,109.6,570.4,108.6"/>
		<path clip-path="url(#SVGID_18_)" fill="#FFFFFF" d="M160.6,30c-2,5.6-8.2,8.5-13.8,6.5c-5.6-2.1-8.4-8.3-6.4-13.9
			c2-5.6,8.2-8.5,13.8-6.4C159.8,18.2,162.7,24.4,160.6,30"/>
		<path clip-path="url(#SVGID_18_)" fill="none" stroke="#FFFFFF" stroke-width="0.25" stroke-miterlimit="10" d="M160.6,30
			c-2,5.6-8.2,8.5-13.8,6.5c-5.6-2.1-8.4-8.3-6.4-13.9c2-5.6,8.2-8.5,13.8-6.4C159.8,18.2,162.7,24.4,160.6,30z"/>
	</g>
</g>
</svg>
