<?xml version="1.0" encoding="utf-8"?>
<!-- Generator: Adobe Illustrator 18.0.0, SVG Export Plug-In . SVG Version: 6.00 Build 0)  -->
<!DOCTYPE svg PUBLIC "-//W3C//DTD SVG 1.1//EN" "http://www.w3.org/Graphics/SVG/1.1/DTD/svg11.dtd">
<svg version="1.1" id="Layer_1" xmlns="http://www.w3.org/2000/svg" xmlns:xlink="http://www.w3.org/1999/xlink" x="0px" y="0px"
	 viewBox="0 0 316.4 486.5" enable-background="new 0 0 316.4 486.5" xml:space="preserve">
<g>
	<g>
		<path fill="#E47E30" d="M157.1,486.5c0,0,33.4-40.7,33.4-90.8l0-52.4l-66.9,0l0,52.4C123.7,445.8,157.1,486.5,157.1,486.5z"/>
		<path fill="#F3AA43" d="M157.1,455.7c0,0,22.9-27.8,22.9-62.2v-35.9l-45.8,0l0,35.9C134.2,427.9,157.1,455.7,157.1,455.7z"/>
	</g>
	<path fill="#B51F18" d="M90.2,173C81,261.4,0,289.6,0,289.6l90.2,105C90.2,394.6,99.4,84.7,90.2,173z"/>
	<g>
		<path fill="#A7A9AC" d="M208.7,323.4v12.9c0,10.2-8.2,18.4-18.4,18.4H124c-10.2,0-18.4-8.2-18.4-18.4v-12.9
			c0-10.2,8.2-18.4,18.4-18.4l66.3,0C200.4,305,208.7,313.2,208.7,323.4z"/>
		<path fill="#D8D8D8" d="M208.7,323.4v12.9c0,10.2-8.2,18.4-18.4,18.4l-45.4,0c-10.2,0-18.4-8.2-18.4-18.4v-12.9
			c0-10.2,8.2-18.4,18.4-18.4l45.4,0C200.4,305,208.7,313.2,208.7,323.4z"/>
		<path fill="#C1C1C1" d="M190,323.4v12.9c0,10.2-8.2,18.4-18.4,18.4l-26.7,0c-10.2,0-18.4-8.2-18.4-18.4v-12.9
			c0-10.2,8.2-18.4,18.4-18.4h26.7C181.7,305,190,313.2,190,323.4z"/>
	</g>
	<path fill="#C60E2D" d="M95.1,178.6C85.9,266.9,4.9,295.2,4.9,295.2l90.2,105C95.1,400.1,104.3,90.2,95.1,178.6z"/>
	<path fill="#B51F18" d="M226.1,173c9.2,88.4,90.2,116.6,90.2,116.6l-90.2,105C226.1,394.6,216.9,84.7,226.1,173z"/>
	<path fill="#C60E2D" d="M221.2,178.6c9.2,88.4,90.2,116.6,90.2,116.6l-90.2,105C221.2,400.1,212,90.2,221.2,178.6z"/>
	<path fill="#657576" d="M229.5,309.3c0,6.4-5.2,11.7-11.7,11.7H97.6c-6.4,0-11.7-5.2-11.7-11.7l0,0c0-6.4,5.2-11.7,11.7-11.7h120.3
		C224.3,297.6,229.5,302.9,229.5,309.3L229.5,309.3z"/>
	<path fill="#E00A2E" d="M229.5,195l0,112.5l-143.6,0l0-112.5c0-49.4,15.1-94.4,31.4-128.7c4-8.4,8.1-16.2,12-23.3
		c2.4-4.3,4.9-8.4,7.2-12.2C147.9,12.2,157,1,157.7,0.1c0-0.1,0-0.1,0-0.1s0,0,0,0.1c0.8,0.9,9.7,12,21,30.4c2.5,4,5,8.2,7.6,12.9
		c3.8,6.8,7.8,14.3,11.6,22.5C214.4,100.2,229.5,145.5,229.5,195z"/>
	<path fill="#FF3964" d="M229.5,195l0,112.5l-103.1,0l0-112.5c0-47.5,6.1-91,12.9-124.8c1.6-8,3.3-15.5,4.9-22.4
		c1-4,1.9-7.9,2.8-11.5c5.6-22,10.3-35.3,10.6-36.3c0-0.1,0-0.1,0-0.1s0,0,0,0.1c0.8,0.9,9.7,12,21,30.4c2.5,4,5,8.2,7.6,12.9
		c3.8,6.8,7.8,14.3,11.6,22.5C214.4,100.2,229.5,145.5,229.5,195z"/>
	<path fill="#F9082A" d="M189,195l0,112.5h-62.6l0-112.5c0-47.5,6.1-91,12.9-124.8c1.6-8,3.3-15.5,4.9-22.4c1-4,1.9-7.9,2.8-11.5
		c5.6-22,10.3-35.3,10.6-36.3c0-0.1,0-0.1,0-0.1s0,0,0,0.1c0.4,1,5,14.3,10.6,36.1c0.9,3.6,1.9,7.5,2.9,11.6
		c1.6,6.8,3.2,14.2,4.9,22.2C182.9,103.8,189,147.4,189,195z"/>
	<path fill="#94C9DF" d="M198.3,168.2c0,22.4-18.1,40.5-40.5,40.5c-22.4,0-40.5-18.1-40.5-40.5c0-22.4,18.2-40.5,40.5-40.5
		C180.1,127.6,198.3,145.8,198.3,168.2z"/>
	<path fill="#A7A9AC" d="M157.7,216.1c-26.4,0-47.9-21.5-47.9-47.9c0-26.4,21.5-47.9,47.9-47.9c26.4,0,47.9,21.5,47.9,47.9
		C205.6,194.6,184.2,216.1,157.7,216.1z M157.7,135c-18.3,0-33.2,14.9-33.2,33.2c0,18.3,14.9,33.2,33.2,33.2
		c18.3,0,33.2-14.9,33.2-33.2C190.9,149.9,176,135,157.7,135z"/>
	<path fill="#FFFFFF" d="M183.3,160c0,9-7.3,16.2-16.2,16.2c-8.9,0-16.2-7.3-16.2-16.2c0-9,7.3-16.2,16.2-16.2
		C176,143.8,183.3,151.1,183.3,160z"/>
	<polygon fill="#C60E2D" points="175.4,291.7 157.7,420 140,291.7 157.7,257.7 	"/>
	<polygon fill="#850309" points="157.7,257.7 157.7,420 140,291.7 	"/>
	<path fill="#E47E30" d="M198,65.8c-6.8,1.9-14.1,3.3-21.8,4.2c-6.2,0.8-12.7,1.1-19.3,1.1c-6,0-11.9-0.3-17.5-0.9
		c-7.8-0.8-15.1-2.1-22-3.9c4-8.4,8.1-16.2,12-23.3c2.4-4.3,4.9-8.4,7.2-12.2C148,12.2,157.1,1,157.8,0.1c0-0.1,0-0.1,0-0.1
		s0,0,0,0.1c0.8,0.9,9.7,12,21,30.4c2.5,4,5,8.2,7.6,12.9C190.2,50.2,194.2,57.7,198,65.8z"/>
</g>
</svg>
