<svg id="svg" version="1.1" xmlns="http://www.w3.org/2000/svg" xmlns:xlink="http://www.w3.org/1999/xlink" width="400" height="400" viewBox="0, 0, 400,400"><g id="svgg"><path id="path0" d="M179.411 150.177 C 175.721 151.547,172.325 157.858,168.424 170.600 C 166.528 176.790,163.486 192.767,162.407 202.200 C 161.399 211.009,160.919 212.334,159.830 209.319 C 159.449 208.263,158.979 207.040,158.784 206.600 C 156.911 202.363,153.440 189.590,151.392 179.400 C 149.173 168.356,146.252 165.279,140.349 167.769 C 137.141 169.121,136.709 169.782,127.893 186.800 C 126.241 189.990,123.949 194.400,122.800 196.600 C 121.651 198.800,119.078 203.750,117.082 207.600 C 115.086 211.450,113.143 215.115,112.764 215.744 L 112.075 216.888 111.568 215.944 C 111.288 215.425,110.902 214.280,110.708 213.400 C 110.374 211.882,110.092 210.610,109.221 206.700 C 109.013 205.765,108.735 204.460,108.603 203.800 C 108.470 203.140,108.204 201.970,108.011 201.200 C 107.650 199.762,107.509 199.070,105.780 190.233 C 104.610 184.259,102.201 170.024,101.813 166.800 C 101.392 163.293,100.766 159.898,100.302 158.600 C 98.154 152.595,88.270 152.332,85.311 158.201 C 83.816 161.168,83.807 162.921,85.246 171.800 C 85.460 173.120,85.822 175.370,86.049 176.800 C 86.277 178.230,86.615 180.300,86.800 181.400 C 86.985 182.500,87.332 184.570,87.572 186.000 C 87.812 187.430,88.171 189.500,88.370 190.600 C 89.377 196.166,89.632 197.544,89.965 199.200 C 90.163 200.190,90.539 202.080,90.798 203.400 C 91.615 207.549,92.059 209.748,92.414 211.400 C 92.603 212.280,92.865 213.540,92.997 214.200 C 93.130 214.860,93.402 216.030,93.603 216.800 C 93.803 217.570,94.528 220.540,95.213 223.400 C 95.898 226.260,96.604 229.050,96.783 229.600 C 96.961 230.150,97.302 231.320,97.539 232.200 C 101.798 247.969,104.991 252.420,110.312 250.005 C 114.173 248.253,119.636 240.952,124.549 230.979 C 133.286 213.243,138.645 202.820,138.971 202.926 C 139.474 203.091,139.833 203.863,140.400 206.000 C 140.663 206.990,141.040 208.113,141.239 208.495 C 141.438 208.877,141.600 209.541,141.600 209.971 C 141.600 210.401,141.744 210.842,141.921 210.951 C 142.097 211.060,142.493 212.072,142.800 213.200 C 143.107 214.328,143.503 215.340,143.679 215.449 C 143.856 215.558,144.000 215.909,144.000 216.228 C 144.000 216.547,144.381 217.662,144.847 218.704 C 145.312 219.747,145.964 221.230,146.295 222.000 C 148.776 227.768,155.308 239.224,156.787 240.400 C 156.925 240.510,157.477 241.230,158.012 242.000 C 167.477 255.613,177.560 253.056,176.942 237.200 C 176.735 231.889,177.268 220.082,177.999 213.800 C 178.956 205.582,179.658 200.481,180.366 196.600 C 180.567 195.500,180.928 193.520,181.168 192.200 C 183.328 180.310,186.150 170.454,189.184 164.200 C 190.767 160.937,191.355 157.894,190.760 156.035 C 189.242 151.290,183.876 148.520,179.411 150.177 M216.600 161.692 C 206.216 165.209,199.114 172.568,194.300 184.800 C 194.084 185.350,193.748 186.113,193.553 186.495 C 193.359 186.877,193.200 187.541,193.200 187.971 C 193.200 188.401,193.020 188.864,192.800 189.000 C 192.580 189.136,192.400 189.741,192.400 190.344 C 192.400 190.947,192.238 191.611,192.041 191.820 C 190.141 193.831,190.142 217.851,192.042 219.026 C 192.239 219.148,192.400 219.599,192.400 220.029 C 192.400 220.459,192.559 221.123,192.753 221.505 C 192.948 221.887,193.353 222.736,193.653 223.392 C 198.288 233.495,206.587 238.855,217.600 238.860 C 231.026 238.865,241.535 229.375,247.123 212.200 C 249.223 205.744,250.000 200.819,250.000 193.964 C 250.000 187.462,249.160 182.626,247.193 177.800 C 247.014 177.360,246.628 176.415,246.336 175.700 C 246.044 174.985,245.669 174.400,245.502 174.400 C 245.336 174.400,245.200 174.207,245.200 173.972 C 245.200 171.580,237.814 164.841,233.200 163.024 C 228.676 161.242,219.986 160.545,216.600 161.692 M282.200 161.692 C 271.889 165.184,264.638 172.683,259.951 184.700 C 259.758 185.195,259.441 186.005,259.246 186.500 C 258.922 187.322,258.426 189.010,257.570 192.200 C 256.435 196.432,256.204 198.756,256.202 206.000 C 256.201 211.323,256.369 214.372,256.732 215.600 C 258.934 223.060,259.434 224.306,261.247 226.862 C 261.661 227.446,262.000 228.041,262.000 228.186 C 262.000 230.631,270.785 236.732,276.400 238.185 C 290.095 241.730,302.261 234.834,309.892 219.200 C 312.436 213.989,313.861 209.310,315.182 201.833 C 315.719 198.794,315.723 188.917,315.189 186.477 C 314.962 185.445,314.590 183.700,314.361 182.600 C 314.132 181.500,313.777 180.195,313.572 179.700 C 313.367 179.205,313.035 178.395,312.834 177.900 C 312.632 177.405,312.228 176.415,311.936 175.700 C 311.644 174.985,311.269 174.400,311.102 174.400 C 310.936 174.400,310.800 174.207,310.800 173.972 C 310.800 171.522,303.542 164.901,298.800 163.027 C 294.289 161.243,285.589 160.543,282.200 161.692 M226.105 178.500 C 238.165 185.240,234.148 214.756,220.304 221.128 C 215.968 223.123,211.451 220.636,209.637 215.253 C 209.367 214.454,209.003 213.440,208.827 213.000 C 207.203 208.941,207.213 198.278,208.843 195.105 C 209.039 194.723,209.200 194.170,209.200 193.876 C 209.200 192.079,214.351 183.720,217.060 181.122 C 219.804 178.490,223.941 177.290,226.105 178.500 M291.705 178.500 C 303.690 185.199,299.764 214.945,286.089 221.056 C 283.502 222.212,282.047 222.244,279.981 221.190 C 277.203 219.773,275.823 217.337,273.551 209.840 C 272.271 205.613,273.540 196.245,276.132 190.800 C 280.628 181.355,287.336 176.058,291.705 178.500 " stroke="none" fill="#fbfafb" fill-rule="evenodd"></path><path id="path1" d="M185.476 43.457 C 185.341 43.592,183.559 43.866,181.515 44.066 C 179.472 44.266,176.810 44.529,175.600 44.650 C 174.390 44.771,173.229 45.035,173.020 45.235 C 172.811 45.436,171.787 45.600,170.744 45.600 C 169.701 45.600,168.736 45.780,168.600 46.000 C 168.464 46.220,167.564 46.400,166.600 46.400 C 165.636 46.400,164.736 46.580,164.600 46.800 C 164.464 47.020,163.733 47.200,162.976 47.200 C 162.219 47.200,161.600 47.380,161.600 47.600 C 161.600 47.820,160.981 48.000,160.224 48.000 C 159.467 48.000,158.736 48.180,158.600 48.400 C 158.464 48.620,157.823 48.800,157.176 48.800 C 156.529 48.800,156.000 48.980,156.000 49.200 C 156.000 49.420,155.280 49.600,154.400 49.600 C 153.520 49.600,152.800 49.780,152.800 50.000 C 152.800 50.220,152.260 50.400,151.600 50.400 C 150.940 50.400,150.400 50.580,150.400 50.800 C 150.400 51.020,149.860 51.200,149.200 51.200 C 148.540 51.200,148.000 51.380,148.000 51.600 C 148.000 51.820,147.645 52.000,147.212 52.000 C 146.779 52.000,145.783 52.360,145.000 52.800 C 144.217 53.240,143.221 53.600,142.788 53.600 C 142.355 53.600,142.000 53.780,142.000 54.000 C 142.000 54.220,141.640 54.400,141.200 54.400 C 140.760 54.400,140.400 54.580,140.400 54.800 C 140.400 55.020,139.860 55.200,139.200 55.200 C 138.540 55.200,138.000 55.380,138.000 55.600 C 138.000 55.820,137.640 56.000,137.200 56.000 C 136.760 56.000,136.400 56.180,136.400 56.400 C 136.400 56.620,136.040 56.800,135.600 56.800 C 135.160 56.800,134.800 56.980,134.800 57.200 C 134.800 57.420,134.350 57.600,133.800 57.600 C 133.250 57.600,132.800 57.780,132.800 58.000 C 132.800 58.220,132.350 58.400,131.800 58.400 C 131.250 58.400,130.800 58.566,130.800 58.768 C 130.800 58.971,130.260 59.255,129.600 59.400 C 128.940 59.545,128.400 59.793,128.400 59.951 C 128.400 60.110,127.770 60.467,127.000 60.746 C 126.230 61.024,125.600 61.420,125.600 61.626 C 125.600 61.832,125.240 62.000,124.800 62.000 C 124.360 62.000,124.000 62.180,124.000 62.400 C 124.000 62.620,123.655 62.800,123.233 62.800 C 122.812 62.800,122.407 62.967,122.333 63.170 C 122.260 63.374,121.930 63.599,121.600 63.670 C 121.270 63.742,120.709 64.115,120.353 64.500 C 119.997 64.885,119.412 65.200,119.053 65.200 C 118.694 65.200,118.400 65.380,118.400 65.600 C 118.400 65.820,118.106 66.000,117.747 66.000 C 117.388 66.000,116.803 66.316,116.447 66.703 C 116.091 67.089,115.305 67.660,114.700 67.970 C 114.095 68.281,113.600 68.685,113.600 68.868 C 113.600 69.050,113.364 69.200,113.075 69.200 C 112.787 69.200,112.202 69.515,111.775 69.900 C 111.349 70.285,110.511 70.852,109.914 71.160 C 109.316 71.468,108.922 71.873,109.037 72.060 C 109.153 72.247,108.993 72.400,108.683 72.400 C 108.373 72.400,107.554 72.940,106.863 73.600 C 106.172 74.260,105.418 74.800,105.187 74.800 C 104.955 74.800,104.498 75.025,104.169 75.300 C 103.841 75.575,103.353 75.983,103.086 76.206 C 102.819 76.429,101.790 77.239,100.800 78.006 C 99.810 78.773,98.391 79.961,97.647 80.647 C 95.337 82.774,94.810 83.200,94.488 83.200 C 94.317 83.200,93.912 83.588,93.588 84.063 C 92.824 85.185,85.185 92.824,84.063 93.588 C 83.588 93.912,83.200 94.317,83.200 94.488 C 83.200 94.819,82.773 95.349,80.693 97.600 C 79.982 98.370,78.773 99.810,78.006 100.800 C 77.239 101.790,76.429 102.819,76.206 103.086 C 75.983 103.353,75.575 103.841,75.300 104.169 C 75.025 104.498,74.800 104.955,74.800 105.187 C 74.800 105.418,74.260 106.172,73.600 106.863 C 72.940 107.554,72.400 108.373,72.400 108.683 C 72.400 108.993,72.247 109.153,72.060 109.037 C 71.873 108.922,71.468 109.316,71.160 109.914 C 70.852 110.511,70.285 111.349,69.900 111.775 C 69.515 112.202,69.200 112.787,69.200 113.075 C 69.200 113.364,69.050 113.600,68.868 113.600 C 68.685 113.600,68.281 114.095,67.970 114.700 C 67.660 115.305,67.089 116.091,66.703 116.447 C 66.316 116.803,66.000 117.388,66.000 117.747 C 66.000 118.106,65.820 118.400,65.600 118.400 C 65.380 118.400,65.200 118.694,65.200 119.053 C 65.200 119.412,64.885 119.997,64.500 120.353 C 64.115 120.709,63.742 121.270,63.670 121.600 C 63.599 121.930,63.374 122.260,63.170 122.333 C 62.967 122.407,62.800 122.812,62.800 123.233 C 62.800 123.655,62.620 124.000,62.400 124.000 C 62.180 124.000,62.000 124.360,62.000 124.800 C 62.000 125.240,61.832 125.600,61.626 125.600 C 61.420 125.600,61.024 126.230,60.746 127.000 C 60.467 127.770,60.110 128.400,59.951 128.400 C 59.793 128.400,59.545 128.940,59.400 129.600 C 59.255 130.260,58.971 130.800,58.768 130.800 C 58.566 130.800,58.400 131.250,58.400 131.800 C 58.400 132.350,58.220 132.800,58.000 132.800 C 57.780 132.800,57.600 133.250,57.600 133.800 C 57.600 134.350,57.420 134.800,57.200 134.800 C 56.980 134.800,56.800 135.160,56.800 135.600 C 56.800 136.040,56.620 136.400,56.400 136.400 C 56.180 136.400,56.000 136.760,56.000 137.200 C 56.000 137.640,55.820 138.000,55.600 138.000 C 55.380 138.000,55.200 138.540,55.200 139.200 C 55.200 139.860,55.020 140.400,54.800 140.400 C 54.580 140.400,54.400 140.760,54.400 141.200 C 54.400 141.640,54.220 142.000,54.000 142.000 C 53.780 142.000,53.600 142.355,53.600 142.788 C 53.600 143.221,53.240 144.217,52.800 145.000 C 52.360 145.783,52.000 146.779,52.000 147.212 C 52.000 147.645,51.820 148.000,51.600 148.000 C 51.380 148.000,51.200 148.540,51.200 149.200 C 51.200 149.860,51.020 150.400,50.800 150.400 C 50.580 150.400,50.400 150.940,50.400 151.600 C 50.400 152.260,50.220 152.800,50.000 152.800 C 49.780 152.800,49.600 153.520,49.600 154.400 C 49.600 155.280,49.420 156.000,49.200 156.000 C 48.980 156.000,48.800 156.529,48.800 157.176 C 48.800 157.823,48.620 158.464,48.400 158.600 C 48.180 158.736,48.000 159.467,48.000 160.224 C 48.000 160.981,47.820 161.600,47.600 161.600 C 47.380 161.600,47.200 162.219,47.200 162.976 C 47.200 163.733,47.020 164.464,46.800 164.600 C 46.580 164.736,46.400 165.636,46.400 166.600 C 46.400 167.564,46.220 168.464,46.000 168.600 C 45.780 168.736,45.600 169.701,45.600 170.744 C 45.600 171.787,45.436 172.811,45.235 173.020 C 45.035 173.229,44.771 174.390,44.650 175.600 C 44.529 176.810,44.214 179.510,43.951 181.600 C 43.312 186.681,43.312 213.319,43.951 218.400 C 44.214 220.490,44.529 223.190,44.650 224.400 C 44.771 225.610,45.035 226.771,45.235 226.980 C 45.436 227.189,45.600 228.314,45.600 229.480 C 45.600 230.646,45.780 231.600,46.000 231.600 C 46.220 231.600,46.400 232.399,46.400 233.376 C 46.400 234.353,46.580 235.264,46.800 235.400 C 47.020 235.536,47.200 236.256,47.200 237.000 C 47.200 237.744,47.380 238.464,47.600 238.600 C 47.820 238.736,48.000 239.467,48.000 240.224 C 48.000 240.981,48.180 241.600,48.400 241.600 C 48.620 241.600,48.800 242.140,48.800 242.800 C 48.800 243.460,48.980 244.000,49.200 244.000 C 49.420 244.000,49.600 244.720,49.600 245.600 C 49.600 246.480,49.780 247.200,50.000 247.200 C 50.220 247.200,50.400 247.740,50.400 248.400 C 50.400 249.060,50.580 249.600,50.800 249.600 C 51.020 249.600,51.200 250.039,51.200 250.576 C 51.200 251.113,51.380 251.664,51.600 251.800 C 51.820 251.936,52.000 252.391,52.000 252.811 C 52.000 253.232,52.360 254.217,52.800 255.000 C 53.240 255.783,53.600 256.779,53.600 257.212 C 53.600 257.645,53.780 258.000,54.000 258.000 C 54.220 258.000,54.400 258.360,54.400 258.800 C 54.400 259.240,54.580 259.600,54.800 259.600 C 55.020 259.600,55.200 260.140,55.200 260.800 C 55.200 261.460,55.380 262.000,55.600 262.000 C 55.820 262.000,56.000 262.360,56.000 262.800 C 56.000 263.240,56.180 263.600,56.400 263.600 C 56.620 263.600,56.800 263.960,56.800 264.400 C 56.800 264.840,56.980 265.200,57.200 265.200 C 57.420 265.200,57.600 265.560,57.600 266.000 C 57.600 266.440,57.780 266.800,58.000 266.800 C 58.220 266.800,58.400 267.149,58.400 267.576 C 58.400 268.406,61.976 275.710,62.492 275.933 C 62.661 276.007,62.800 276.412,62.800 276.833 C 62.800 277.255,62.958 277.600,63.151 277.600 C 63.345 277.600,63.727 278.140,64.000 278.800 C 64.273 279.460,64.655 280.000,64.849 280.000 C 65.042 280.000,65.200 280.360,65.200 280.800 C 65.200 281.240,65.380 281.600,65.600 281.600 C 65.820 281.600,66.000 281.920,66.000 282.312 C 66.000 282.703,66.360 283.283,66.800 283.600 C 67.240 283.917,67.600 284.457,67.600 284.800 C 67.600 285.143,67.960 285.683,68.400 286.000 C 68.840 286.317,69.200 286.831,69.200 287.141 C 69.200 287.452,69.516 287.997,69.903 288.353 C 70.289 288.709,70.860 289.495,71.170 290.100 C 71.481 290.705,71.885 291.200,72.068 291.200 C 72.250 291.200,72.400 291.398,72.400 291.640 C 72.400 291.881,72.940 292.583,73.600 293.200 C 74.260 293.817,74.800 294.526,74.800 294.777 C 74.800 295.256,74.981 295.505,76.849 297.596 C 77.482 298.305,78.000 299.013,78.000 299.171 C 78.000 299.328,78.810 300.302,79.800 301.335 C 80.790 302.369,81.600 303.358,81.600 303.534 C 81.600 303.710,82.635 304.872,83.900 306.115 C 91.679 313.761,93.058 315.160,93.588 315.937 C 93.912 316.412,94.364 316.800,94.592 316.800 C 94.821 316.800,95.232 317.160,95.507 317.600 C 95.782 318.040,96.181 318.400,96.394 318.400 C 96.607 318.400,97.725 319.300,98.878 320.400 C 100.031 321.500,101.115 322.400,101.287 322.400 C 101.458 322.400,102.266 323.030,103.082 323.800 C 103.899 324.570,104.801 325.200,105.087 325.200 C 105.373 325.200,106.172 325.740,106.863 326.400 C 107.554 327.060,108.319 327.600,108.563 327.600 C 108.808 327.600,109.232 327.960,109.507 328.400 C 109.782 328.840,110.275 329.200,110.603 329.200 C 110.932 329.200,111.200 329.350,111.200 329.532 C 111.200 329.715,111.695 330.119,112.300 330.430 C 112.905 330.740,113.691 331.311,114.047 331.697 C 114.403 332.084,114.948 332.400,115.259 332.400 C 115.569 332.400,116.083 332.760,116.400 333.200 C 116.717 333.640,117.297 334.000,117.688 334.000 C 118.080 334.000,118.400 334.180,118.400 334.400 C 118.400 334.620,118.678 334.800,119.017 334.800 C 119.356 334.800,120.020 335.160,120.492 335.600 C 120.964 336.040,121.587 336.400,121.875 336.400 C 122.164 336.400,122.400 336.580,122.400 336.800 C 122.400 337.020,122.760 337.200,123.200 337.200 C 123.640 337.200,124.000 337.380,124.000 337.600 C 124.000 337.820,124.345 338.000,124.767 338.000 C 125.188 338.000,125.593 338.139,125.667 338.309 C 125.901 338.854,131.485 341.600,132.358 341.600 C 132.821 341.600,133.200 341.780,133.200 342.000 C 133.200 342.220,133.560 342.400,134.000 342.400 C 134.440 342.400,134.800 342.580,134.800 342.800 C 134.800 343.020,135.160 343.200,135.600 343.200 C 136.040 343.200,136.400 343.380,136.400 343.600 C 136.400 343.820,136.760 344.000,137.200 344.000 C 137.640 344.000,138.000 344.180,138.000 344.400 C 138.000 344.620,138.540 344.800,139.200 344.800 C 139.860 344.800,140.400 344.980,140.400 345.200 C 140.400 345.420,140.760 345.600,141.200 345.600 C 141.640 345.600,142.000 345.780,142.000 346.000 C 142.000 346.220,142.450 346.400,143.000 346.400 C 143.550 346.400,144.000 346.580,144.000 346.800 C 144.000 347.020,144.349 347.200,144.776 347.200 C 145.203 347.200,145.664 347.380,145.800 347.600 C 145.936 347.820,146.476 348.000,147.000 348.000 C 147.524 348.000,148.064 348.180,148.200 348.400 C 148.336 348.620,148.887 348.800,149.424 348.800 C 149.961 348.800,150.400 348.980,150.400 349.200 C 150.400 349.420,150.940 349.600,151.600 349.600 C 152.260 349.600,152.800 349.780,152.800 350.000 C 152.800 350.220,153.520 350.400,154.400 350.400 C 155.280 350.400,156.000 350.580,156.000 350.800 C 156.000 351.020,156.540 351.200,157.200 351.200 C 157.860 351.200,158.400 351.380,158.400 351.600 C 158.400 351.820,159.120 352.000,160.000 352.000 C 160.880 352.000,161.600 352.180,161.600 352.400 C 161.600 352.620,162.309 352.800,163.176 352.800 C 164.043 352.800,164.864 352.980,165.000 353.200 C 165.136 353.420,165.957 353.600,166.824 353.600 C 167.691 353.600,168.400 353.780,168.400 354.000 C 168.400 354.220,169.379 354.400,170.576 354.400 C 171.773 354.400,172.864 354.580,173.000 354.800 C 173.136 355.020,174.191 355.200,175.344 355.200 C 176.497 355.200,177.611 355.366,177.820 355.570 C 179.139 356.854,220.861 356.854,222.180 355.570 C 222.389 355.366,223.503 355.200,224.656 355.200 C 225.809 355.200,226.864 355.020,227.000 354.800 C 227.136 354.580,228.227 354.400,229.424 354.400 C 230.621 354.400,231.600 354.220,231.600 354.000 C 231.600 353.780,232.309 353.600,233.176 353.600 C 234.043 353.600,234.864 353.420,235.000 353.200 C 235.136 352.980,235.946 352.800,236.800 352.800 C 237.654 352.800,238.464 352.620,238.600 352.400 C 238.736 352.180,239.467 352.000,240.224 352.000 C 240.981 352.000,241.600 351.820,241.600 351.600 C 241.600 351.380,242.140 351.200,242.800 351.200 C 243.460 351.200,244.000 351.020,244.000 350.800 C 244.000 350.580,244.720 350.400,245.600 350.400 C 246.480 350.400,247.200 350.220,247.200 350.000 C 247.200 349.780,247.740 349.600,248.400 349.600 C 249.060 349.600,249.600 349.420,249.600 349.200 C 249.600 348.980,250.039 348.800,250.576 348.800 C 251.113 348.800,251.664 348.620,251.800 348.400 C 251.936 348.180,252.476 348.000,253.000 348.000 C 253.524 348.000,254.064 347.820,254.200 347.600 C 254.336 347.380,254.797 347.200,255.224 347.200 C 255.651 347.200,256.000 347.020,256.000 346.800 C 256.000 346.580,256.450 346.400,257.000 346.400 C 257.550 346.400,258.000 346.220,258.000 346.000 C 258.000 345.780,258.360 345.600,258.800 345.600 C 259.240 345.600,259.600 345.420,259.600 345.200 C 259.600 344.980,260.140 344.800,260.800 344.800 C 261.460 344.800,262.000 344.620,262.000 344.400 C 262.000 344.180,262.360 344.000,262.800 344.000 C 263.240 344.000,263.600 343.820,263.600 343.600 C 263.600 343.380,263.960 343.200,264.400 343.200 C 264.840 343.200,265.200 343.020,265.200 342.800 C 265.200 342.580,265.560 342.400,266.000 342.400 C 266.440 342.400,266.800 342.220,266.800 342.000 C 266.800 341.780,267.205 341.600,267.700 341.600 C 268.195 341.600,269.590 341.057,270.800 340.394 C 272.010 339.731,273.675 338.879,274.500 338.500 C 275.325 338.121,276.000 337.674,276.000 337.506 C 276.000 337.338,276.360 337.200,276.800 337.200 C 277.240 337.200,277.600 337.020,277.600 336.800 C 277.600 336.580,277.836 336.400,278.125 336.400 C 278.413 336.400,279.036 336.040,279.508 335.600 C 279.980 335.160,280.644 334.800,280.983 334.800 C 281.322 334.800,281.600 334.620,281.600 334.400 C 281.600 334.180,281.836 334.000,282.125 334.000 C 282.413 334.000,283.036 333.640,283.508 333.200 C 283.980 332.760,284.604 332.400,284.895 332.400 C 285.186 332.400,285.683 332.040,286.000 331.600 C 286.317 331.160,286.831 330.800,287.141 330.800 C 287.452 330.800,287.997 330.484,288.353 330.097 C 288.709 329.711,289.495 329.140,290.100 328.830 C 290.705 328.519,291.200 328.115,291.200 327.932 C 291.200 327.750,291.398 327.600,291.640 327.600 C 291.881 327.600,292.583 327.060,293.200 326.400 C 293.817 325.740,294.571 325.200,294.877 325.200 C 295.183 325.200,296.101 324.570,296.918 323.800 C 297.734 323.030,298.563 322.400,298.760 322.400 C 298.958 322.400,300.038 321.500,301.161 320.400 C 302.285 319.300,303.306 318.400,303.431 318.400 C 303.555 318.400,303.885 318.175,304.163 317.900 C 304.441 317.625,305.137 317.050,305.710 316.623 C 306.283 316.196,306.679 315.728,306.590 315.583 C 306.500 315.439,306.871 315.083,307.414 314.793 C 307.956 314.502,308.400 314.119,308.400 313.940 C 308.400 313.516,313.516 308.400,313.940 308.400 C 314.119 308.400,314.502 307.956,314.793 307.414 C 315.083 306.871,315.439 306.500,315.583 306.590 C 315.728 306.679,316.196 306.283,316.623 305.710 C 317.050 305.137,317.625 304.441,317.900 304.163 C 318.175 303.885,318.400 303.555,318.400 303.431 C 318.400 303.306,319.300 302.285,320.400 301.161 C 321.500 300.038,322.400 298.958,322.400 298.760 C 322.400 298.563,323.030 297.734,323.800 296.918 C 324.570 296.101,325.200 295.183,325.200 294.877 C 325.200 294.571,325.740 293.817,326.400 293.200 C 327.060 292.583,327.600 291.881,327.600 291.640 C 327.600 291.398,327.750 291.200,327.932 291.200 C 328.115 291.200,328.519 290.705,328.830 290.100 C 329.140 289.495,329.711 288.709,330.097 288.353 C 330.484 287.997,330.800 287.452,330.800 287.141 C 330.800 286.831,331.160 286.317,331.600 286.000 C 332.040 285.683,332.400 285.186,332.400 284.895 C 332.400 284.604,332.760 283.980,333.200 283.508 C 333.640 283.036,334.000 282.413,334.000 282.125 C 334.000 281.836,334.180 281.600,334.400 281.600 C 334.620 281.600,334.800 281.322,334.800 280.983 C 334.800 280.644,335.160 279.980,335.600 279.508 C 336.040 279.036,336.400 278.413,336.400 278.125 C 336.400 277.836,336.580 277.600,336.800 277.600 C 337.020 277.600,337.200 277.240,337.200 276.800 C 337.200 276.360,337.338 276.000,337.506 276.000 C 337.674 276.000,338.121 275.325,338.500 274.500 C 338.879 273.675,339.731 272.010,340.394 270.800 C 341.057 269.590,341.600 268.195,341.600 267.700 C 341.600 267.205,341.780 266.800,342.000 266.800 C 342.220 266.800,342.400 266.440,342.400 266.000 C 342.400 265.560,342.580 265.200,342.800 265.200 C 343.020 265.200,343.200 264.840,343.200 264.400 C 343.200 263.960,343.380 263.600,343.600 263.600 C 343.820 263.600,344.000 263.240,344.000 262.800 C 344.000 262.360,344.180 262.000,344.400 262.000 C 344.620 262.000,344.800 261.460,344.800 260.800 C 344.800 260.140,344.980 259.600,345.200 259.600 C 345.420 259.600,345.600 259.240,345.600 258.800 C 345.600 258.360,345.780 258.000,346.000 258.000 C 346.220 258.000,346.400 257.550,346.400 257.000 C 346.400 256.450,346.580 256.000,346.800 256.000 C 347.020 256.000,347.200 255.651,347.200 255.224 C 347.200 254.797,347.380 254.336,347.600 254.200 C 347.820 254.064,348.000 253.524,348.000 253.000 C 348.000 252.476,348.180 251.936,348.400 251.800 C 348.620 251.664,348.800 251.113,348.800 250.576 C 348.800 250.039,348.980 249.600,349.200 249.600 C 349.420 249.600,349.600 249.060,349.600 248.400 C 349.600 247.740,349.780 247.200,350.000 247.200 C 350.220 247.200,350.400 246.480,350.400 245.600 C 350.400 244.720,350.580 244.000,350.800 244.000 C 351.020 244.000,351.200 243.460,351.200 242.800 C 351.200 242.140,351.380 241.600,351.600 241.600 C 351.820 241.600,352.000 240.981,352.000 240.224 C 352.000 239.467,352.180 238.736,352.400 238.600 C 352.620 238.464,352.800 237.654,352.800 236.800 C 352.800 235.946,352.980 235.136,353.200 235.000 C 353.420 234.864,353.600 234.043,353.600 233.176 C 353.600 232.309,353.780 231.600,354.000 231.600 C 354.220 231.600,354.400 230.621,354.400 229.424 C 354.400 228.227,354.580 227.136,354.800 227.000 C 355.020 226.864,355.200 225.809,355.200 224.656 C 355.200 223.503,355.366 222.389,355.570 222.180 C 356.232 221.500,356.467 215.680,356.467 200.000 C 356.467 184.320,356.232 178.500,355.570 177.820 C 355.366 177.611,355.200 176.497,355.200 175.344 C 355.200 174.191,355.020 173.136,354.800 173.000 C 354.580 172.864,354.400 171.773,354.400 170.576 C 354.400 169.379,354.220 168.400,354.000 168.400 C 353.780 168.400,353.600 167.691,353.600 166.824 C 353.600 165.957,353.420 165.136,353.200 165.000 C 352.980 164.864,352.800 164.043,352.800 163.176 C 352.800 162.309,352.620 161.600,352.400 161.600 C 352.180 161.600,352.000 160.880,352.000 160.000 C 352.000 159.120,351.820 158.400,351.600 158.400 C 351.380 158.400,351.200 157.860,351.200 157.200 C 351.200 156.540,351.020 156.000,350.800 156.000 C 350.580 156.000,350.400 155.280,350.400 154.400 C 350.400 153.520,350.220 152.800,350.000 152.800 C 349.780 152.800,349.600 152.260,349.600 151.600 C 349.600 150.940,349.420 150.400,349.200 150.400 C 348.980 150.400,348.800 149.961,348.800 149.424 C 348.800 148.887,348.620 148.336,348.400 148.200 C 348.180 148.064,348.000 147.524,348.000 147.000 C 348.000 146.476,347.820 145.936,347.600 145.800 C 347.380 145.664,347.200 145.203,347.200 144.776 C 347.200 144.349,347.020 144.000,346.800 144.000 C 346.580 144.000,346.400 143.550,346.400 143.000 C 346.400 142.450,346.220 142.000,346.000 142.000 C 345.780 142.000,345.600 141.640,345.600 141.200 C 345.600 140.760,345.420 140.400,345.200 140.400 C 344.980 140.400,344.800 139.860,344.800 139.200 C 344.800 138.540,344.620 138.000,344.400 138.000 C 344.180 138.000,344.000 137.640,344.000 137.200 C 344.000 136.760,343.820 136.400,343.600 136.400 C 343.380 136.400,343.200 136.040,343.200 135.600 C 343.200 135.160,343.020 134.800,342.800 134.800 C 342.580 134.800,342.400 134.440,342.400 134.000 C 342.400 133.560,342.220 133.200,342.000 133.200 C 341.780 133.200,341.600 132.821,341.600 132.358 C 341.600 131.485,338.854 125.901,338.309 125.667 C 338.139 125.593,338.000 125.188,338.000 124.767 C 338.000 124.345,337.820 124.000,337.600 124.000 C 337.380 124.000,337.200 123.640,337.200 123.200 C 337.200 122.760,337.020 122.400,336.800 122.400 C 336.580 122.400,336.400 122.164,336.400 121.875 C 336.400 121.587,336.040 120.964,335.600 120.492 C 335.160 120.020,334.800 119.356,334.800 119.017 C 334.800 118.678,334.620 118.400,334.400 118.400 C 334.180 118.400,334.000 118.080,334.000 117.688 C 334.000 117.297,333.640 116.717,333.200 116.400 C 332.760 116.083,332.400 115.627,332.400 115.387 C 332.400 115.147,332.085 114.602,331.700 114.175 C 331.315 113.749,330.745 112.905,330.432 112.300 C 330.120 111.695,329.715 111.200,329.532 111.200 C 329.350 111.200,329.200 110.932,329.200 110.603 C 329.200 110.275,328.840 109.782,328.400 109.507 C 327.960 109.232,327.600 108.808,327.600 108.563 C 327.600 108.319,327.060 107.554,326.400 106.863 C 325.740 106.172,325.200 105.373,325.200 105.087 C 325.200 104.801,324.570 103.899,323.800 103.082 C 323.030 102.266,322.400 101.458,322.400 101.287 C 322.400 101.115,321.500 100.031,320.400 98.878 C 319.300 97.725,318.400 96.607,318.400 96.394 C 318.400 96.181,318.040 95.782,317.600 95.507 C 317.160 95.232,316.800 94.821,316.800 94.592 C 316.800 94.364,316.412 93.912,315.937 93.588 C 315.160 93.058,313.761 91.679,306.115 83.900 C 304.872 82.635,303.710 81.600,303.534 81.600 C 303.358 81.600,302.369 80.790,301.335 79.800 C 300.302 78.810,299.328 78.000,299.171 78.000 C 299.013 78.000,298.281 77.459,297.542 76.799 C 295.504 74.974,295.267 74.800,294.824 74.800 C 294.598 74.800,293.916 74.351,293.307 73.803 C 291.038 71.758,289.788 70.801,289.388 70.800 C 289.162 70.800,288.717 70.440,288.400 70.000 C 288.083 69.560,287.543 69.200,287.200 69.200 C 286.857 69.200,286.317 68.840,286.000 68.400 C 285.683 67.960,285.143 67.600,284.800 67.600 C 284.457 67.600,283.917 67.240,283.600 66.800 C 283.283 66.360,282.703 66.000,282.312 66.000 C 281.920 66.000,281.600 65.820,281.600 65.600 C 281.600 65.380,281.240 65.200,280.800 65.200 C 280.360 65.200,280.000 65.042,280.000 64.849 C 280.000 64.655,279.460 64.273,278.800 64.000 C 278.140 63.727,277.600 63.345,277.600 63.151 C 277.600 62.958,277.255 62.800,276.833 62.800 C 276.412 62.800,276.007 62.661,275.933 62.492 C 275.710 61.976,268.406 58.400,267.576 58.400 C 267.149 58.400,266.800 58.220,266.800 58.000 C 266.800 57.780,266.440 57.600,266.000 57.600 C 265.560 57.600,265.200 57.420,265.200 57.200 C 265.200 56.980,264.840 56.800,264.400 56.800 C 263.960 56.800,263.600 56.620,263.600 56.400 C 263.600 56.180,263.240 56.000,262.800 56.000 C 262.360 56.000,262.000 55.820,262.000 55.600 C 262.000 55.380,261.460 55.200,260.800 55.200 C 260.140 55.200,259.600 55.020,259.600 54.800 C 259.600 54.580,259.240 54.400,258.800 54.400 C 258.360 54.400,258.000 54.220,258.000 54.000 C 258.000 53.780,257.645 53.600,257.212 53.600 C 256.779 53.600,255.783 53.240,255.000 52.800 C 254.217 52.360,253.232 52.000,252.811 52.000 C 252.391 52.000,251.936 51.820,251.800 51.600 C 251.664 51.380,251.113 51.200,250.576 51.200 C 250.039 51.200,249.600 51.020,249.600 50.800 C 249.600 50.580,249.060 50.400,248.400 50.400 C 247.740 50.400,247.200 50.220,247.200 50.000 C 247.200 49.780,246.480 49.600,245.600 49.600 C 244.720 49.600,244.000 49.420,244.000 49.200 C 244.000 48.980,243.460 48.800,242.800 48.800 C 242.140 48.800,241.600 48.620,241.600 48.400 C 241.600 48.180,240.981 48.000,240.224 48.000 C 239.467 48.000,238.736 47.820,238.600 47.600 C 238.464 47.380,237.744 47.200,237.000 47.200 C 236.256 47.200,235.536 47.020,235.400 46.800 C 235.264 46.580,234.353 46.400,233.376 46.400 C 232.399 46.400,231.600 46.220,231.600 46.000 C 231.600 45.780,230.646 45.600,229.480 45.600 C 228.314 45.600,227.189 45.436,226.980 45.235 C 226.771 45.035,225.610 44.768,224.400 44.643 C 223.190 44.519,220.670 44.221,218.800 43.982 C 215.131 43.514,185.880 43.053,185.476 43.457 M185.760 149.409 C 191.044 151.617,193.138 157.415,190.631 162.895 C 188.439 167.686,185.600 175.740,185.600 177.165 C 185.600 177.598,185.440 178.052,185.244 178.173 C 185.049 178.294,184.788 178.979,184.666 179.696 C 184.544 180.413,184.254 181.855,184.022 182.900 C 182.679 188.947,182.276 190.903,181.571 194.800 C 180.141 202.705,179.292 208.957,178.366 218.400 C 178.140 220.710,177.873 227.550,177.773 233.600 C 177.673 239.650,177.437 244.960,177.249 245.400 C 175.266 250.038,173.564 251.365,169.598 251.365 C 166.352 251.365,164.301 250.300,161.453 247.134 C 160.397 245.960,158.957 244.363,158.254 243.584 C 157.550 242.806,156.539 241.546,156.007 240.784 C 155.474 240.023,154.940 239.310,154.819 239.200 C 154.698 239.090,154.344 238.505,154.032 237.900 C 153.720 237.295,153.315 236.800,153.132 236.800 C 152.950 236.800,152.800 236.607,152.800 236.372 C 152.800 236.137,152.260 235.159,151.600 234.200 C 150.940 233.241,150.400 232.361,150.400 232.246 C 150.400 232.130,149.900 231.172,149.288 230.118 C 148.055 227.990,145.888 223.267,143.913 218.400 C 143.689 217.850,143.348 217.087,143.153 216.705 C 142.959 216.323,142.800 215.648,142.800 215.205 C 142.800 214.762,142.620 214.400,142.400 214.400 C 142.180 214.400,142.000 213.961,142.000 213.424 C 142.000 212.887,141.820 212.336,141.600 212.200 C 141.380 212.064,141.200 211.524,141.200 211.000 C 141.200 210.476,141.020 209.936,140.800 209.800 C 140.580 209.664,140.400 209.149,140.400 208.656 C 140.400 208.163,140.235 207.589,140.034 207.380 C 139.832 207.171,139.607 206.564,139.534 206.031 C 139.460 205.499,139.211 205.000,138.979 204.924 C 138.559 204.786,125.987 229.356,125.996 230.300 C 125.998 230.575,125.820 230.800,125.600 230.800 C 125.380 230.800,125.200 231.065,125.200 231.388 C 125.200 231.711,124.815 232.656,124.343 233.488 C 123.872 234.320,123.037 235.810,122.488 236.800 C 112.897 254.080,104.980 256.034,99.791 242.400 C 98.416 238.787,96.006 230.468,96.002 229.324 C 96.001 228.842,95.820 228.336,95.600 228.200 C 95.380 228.064,95.200 227.344,95.200 226.600 C 95.200 225.856,95.040 225.148,94.844 225.027 C 94.508 224.820,94.272 223.807,93.742 220.297 C 93.618 219.471,93.355 218.695,93.158 218.574 C 92.961 218.452,92.800 217.654,92.800 216.800 C 92.800 215.946,92.620 215.136,92.400 215.000 C 92.180 214.864,92.000 214.079,92.000 213.256 C 92.000 212.433,91.838 211.589,91.641 211.380 C 91.444 211.171,91.180 210.280,91.056 209.400 C 90.501 205.465,90.329 204.550,89.998 203.800 C 89.804 203.360,89.545 202.235,89.423 201.300 C 89.300 200.365,89.100 198.835,88.977 197.900 C 88.855 196.965,88.595 195.840,88.400 195.400 C 88.205 194.960,87.950 193.880,87.834 193.000 C 87.601 191.230,87.053 187.869,86.400 184.200 C 86.165 182.880,85.814 180.810,85.621 179.600 C 85.427 178.390,85.058 176.140,84.800 174.600 C 84.542 173.060,84.154 170.720,83.936 169.400 C 83.280 165.406,83.092 160.748,83.568 160.272 C 83.806 160.034,84.000 159.458,84.000 158.992 C 84.000 156.055,88.270 153.416,93.000 153.430 C 98.936 153.447,101.401 155.967,102.165 162.800 C 102.275 163.790,102.545 165.770,102.765 167.200 C 102.984 168.630,103.435 171.600,103.766 173.800 C 104.098 176.000,104.824 180.230,105.381 183.200 C 105.937 186.170,106.394 189.174,106.396 189.876 C 106.398 190.578,106.580 191.264,106.800 191.400 C 107.020 191.536,107.200 192.411,107.200 193.344 C 107.200 194.277,107.362 195.211,107.559 195.420 C 107.756 195.629,108.026 196.565,108.159 197.500 C 108.292 198.435,108.508 199.965,108.641 200.900 C 108.774 201.835,109.044 202.771,109.241 202.980 C 109.438 203.189,109.600 204.033,109.600 204.856 C 109.600 205.679,109.780 206.464,110.000 206.600 C 110.220 206.736,110.400 207.546,110.400 208.400 C 110.400 209.254,110.580 210.064,110.800 210.200 C 111.020 210.336,111.200 211.056,111.200 211.800 C 111.200 212.544,111.380 213.264,111.600 213.400 C 111.820 213.536,112.001 214.042,112.002 214.524 C 112.005 215.526,111.664 216.103,115.985 207.800 C 117.473 204.940,119.736 200.620,121.013 198.200 C 122.289 195.780,123.889 192.720,124.567 191.400 C 125.245 190.080,125.935 188.940,126.100 188.867 C 126.265 188.793,126.400 188.388,126.400 187.967 C 126.400 187.545,126.580 187.200,126.800 187.200 C 127.020 187.200,127.200 186.855,127.200 186.433 C 127.200 186.012,127.335 185.607,127.500 185.533 C 127.665 185.460,129.118 182.790,130.730 179.600 C 134.548 172.040,134.890 171.439,136.251 169.879 C 140.754 164.716,147.544 165.262,150.199 171.000 C 150.973 172.675,151.439 174.453,151.978 177.800 C 152.155 178.900,152.499 180.700,152.743 181.800 C 152.986 182.900,153.445 184.970,153.762 186.400 C 154.731 190.762,156.671 198.004,156.943 198.276 C 157.084 198.418,157.200 198.943,157.200 199.443 C 157.200 199.943,157.380 200.464,157.600 200.600 C 157.820 200.736,158.000 201.276,158.000 201.800 C 158.000 202.324,158.180 202.864,158.400 203.000 C 158.620 203.136,158.800 203.676,158.800 204.200 C 158.800 204.724,158.980 205.264,159.200 205.400 C 159.420 205.536,159.600 206.087,159.600 206.624 C 159.600 207.161,159.780 207.600,160.000 207.600 C 160.220 207.600,160.425 208.005,160.456 208.500 C 160.533 209.725,161.293 204.736,162.343 196.108 C 162.733 192.909,164.081 185.034,164.792 181.800 C 165.498 178.593,166.059 176.165,166.458 174.600 C 167.490 170.553,167.711 169.748,168.000 169.000 C 168.170 168.560,168.542 167.390,168.826 166.400 C 169.111 165.410,169.466 164.420,169.614 164.200 C 169.762 163.980,170.129 162.945,170.429 161.900 C 170.729 160.855,171.115 160.000,171.287 160.000 C 171.459 160.000,171.600 159.755,171.600 159.456 C 171.600 158.799,174.076 153.855,174.500 153.667 C 174.665 153.593,174.800 153.314,174.800 153.045 C 174.800 150.262,182.048 147.858,185.760 149.409 M228.200 160.718 C 233.589 161.704,239.867 165.079,242.200 168.246 C 242.640 168.843,243.189 169.527,243.419 169.766 C 245.123 171.530,247.796 176.615,249.117 180.600 C 251.740 188.519,251.324 205.193,248.361 210.895 C 248.162 211.277,248.000 211.941,248.000 212.371 C 248.000 212.801,247.820 213.264,247.600 213.400 C 247.380 213.536,247.200 213.980,247.200 214.386 C 247.200 215.084,246.760 216.106,244.740 220.100 C 244.268 221.035,243.683 222.204,243.440 222.697 C 243.198 223.190,242.865 223.595,242.700 223.597 C 242.535 223.599,242.400 223.790,242.400 224.022 C 242.400 225.475,233.621 235.600,232.361 235.600 C 232.153 235.600,231.312 236.040,230.491 236.577 C 223.971 240.848,213.315 240.957,204.841 236.838 C 201.730 235.326,196.000 230.264,196.000 229.027 C 196.000 228.682,195.855 228.400,195.679 228.400 C 195.502 228.400,194.917 227.503,194.379 226.406 C 193.840 225.310,193.265 224.410,193.100 224.406 C 192.935 224.403,192.800 224.051,192.800 223.624 C 192.800 223.197,192.620 222.736,192.400 222.600 C 192.180 222.464,192.000 221.913,192.000 221.376 C 192.000 220.839,191.820 220.400,191.600 220.400 C 191.380 220.400,191.200 219.896,191.200 219.280 C 191.200 218.664,191.037 217.989,190.839 217.780 C 189.940 216.834,189.160 198.680,189.983 197.857 C 190.212 197.628,190.400 196.587,190.400 195.544 C 190.400 194.501,190.580 193.536,190.800 193.400 C 191.020 193.264,191.200 192.544,191.200 191.800 C 191.200 191.056,191.380 190.336,191.600 190.200 C 191.820 190.064,192.000 189.423,192.000 188.776 C 192.000 188.129,192.180 187.600,192.400 187.600 C 192.620 187.600,192.800 187.238,192.800 186.795 C 192.800 186.352,192.959 185.677,193.153 185.295 C 193.348 184.913,193.684 184.150,193.900 183.600 C 197.993 173.185,208.570 161.778,214.276 161.624 C 214.758 161.611,215.264 161.420,215.400 161.200 C 215.536 160.980,216.222 160.787,216.924 160.772 C 217.626 160.756,218.560 160.580,219.000 160.381 C 219.902 159.971,225.173 160.164,228.200 160.718 M293.800 160.718 C 299.352 161.733,306.133 165.480,308.205 168.676 C 308.606 169.294,309.219 170.070,309.567 170.401 C 310.340 171.135,311.263 172.696,312.640 175.600 C 314.293 179.085,314.499 179.663,315.554 183.800 C 316.956 189.299,316.800 199.460,315.203 206.600 C 314.957 207.700,314.656 209.185,314.534 209.900 C 314.412 210.615,314.152 211.200,313.956 211.200 C 313.760 211.200,313.600 211.639,313.600 212.176 C 313.600 212.713,313.420 213.264,313.200 213.400 C 312.980 213.536,312.800 214.076,312.800 214.600 C 312.800 215.124,312.620 215.664,312.400 215.800 C 312.180 215.936,312.000 216.397,312.000 216.824 C 312.000 217.251,311.820 217.600,311.600 217.600 C 311.380 217.600,311.200 217.853,311.200 218.162 C 311.200 218.680,309.661 221.940,309.199 222.400 C 309.089 222.510,308.729 223.137,308.399 223.794 C 308.070 224.451,307.585 225.261,307.322 225.594 C 307.060 225.927,306.015 227.317,305.002 228.682 C 296.818 239.706,283.028 242.966,270.464 236.846 C 267.373 235.341,262.354 230.945,261.826 229.281 C 261.672 228.797,261.414 228.400,261.252 228.400 C 261.090 228.400,260.517 227.503,259.979 226.406 C 259.440 225.310,258.865 224.410,258.700 224.406 C 258.535 224.403,258.400 224.051,258.400 223.624 C 258.400 223.197,258.220 222.736,258.000 222.600 C 257.780 222.464,257.600 221.913,257.600 221.376 C 257.600 220.839,257.440 220.400,257.244 220.400 C 257.048 220.400,256.785 219.815,256.660 219.100 C 256.536 218.385,256.218 216.810,255.955 215.600 C 255.077 211.566,255.449 194.454,256.437 193.420 C 256.637 193.211,256.800 192.457,256.800 191.744 C 256.800 191.031,256.980 190.336,257.200 190.200 C 257.420 190.064,257.600 189.524,257.600 189.000 C 257.600 188.476,257.780 187.936,258.000 187.800 C 258.220 187.664,258.400 187.201,258.400 186.771 C 258.400 186.341,258.565 185.677,258.766 185.295 C 258.968 184.913,259.436 183.880,259.807 183.000 C 263.914 173.248,273.505 162.452,278.100 162.407 C 278.485 162.403,278.800 162.220,278.800 162.000 C 278.800 161.780,279.239 161.600,279.776 161.600 C 280.313 161.600,280.864 161.420,281.000 161.200 C 281.136 160.980,281.822 160.787,282.524 160.772 C 283.226 160.756,284.160 160.580,284.600 160.381 C 285.502 159.971,290.773 160.164,293.800 160.718 M219.800 180.080 C 216.599 182.360,213.310 186.557,211.243 191.000 C 210.731 192.100,210.152 193.313,209.956 193.695 C 209.760 194.077,209.600 194.831,209.600 195.371 C 209.600 195.911,209.446 196.448,209.257 196.565 C 208.175 197.233,208.173 211.600,209.255 211.600 C 209.445 211.600,209.600 212.140,209.600 212.800 C 209.600 213.460,209.780 214.000,210.000 214.000 C 210.220 214.000,210.400 214.265,210.400 214.588 C 210.400 217.261,214.176 220.800,217.029 220.800 C 220.254 220.800,227.200 216.025,227.200 213.807 C 227.200 213.473,227.338 213.200,227.506 213.200 C 228.273 213.200,231.144 205.328,231.647 201.843 C 233.121 191.633,231.968 185.347,227.812 180.947 C 225.800 178.818,222.129 178.421,219.800 180.080 M285.400 180.080 C 281.586 182.797,277.934 187.899,275.579 193.800 C 274.910 195.479,273.859 202.560,273.918 205.000 C 273.979 207.535,274.513 211.222,274.849 211.430 C 275.042 211.549,275.200 212.177,275.200 212.824 C 275.200 213.471,275.380 214.000,275.600 214.000 C 275.820 214.000,276.000 214.265,276.000 214.588 C 276.000 215.625,277.613 218.161,279.124 219.500 C 280.540 220.755,285.600 221.534,285.600 220.498 C 285.600 220.331,286.185 219.938,286.900 219.624 C 289.685 218.400,295.200 211.304,295.200 208.944 C 295.200 208.645,295.335 208.400,295.500 208.400 C 296.304 208.398,297.979 198.756,297.992 194.058 C 298.020 183.533,291.193 175.954,285.400 180.080 " stroke="none" fill="#9c5c8c" fill-rule="evenodd"></path><path id="path2" d="M181.700 149.476 C 182.085 149.576,182.715 149.576,183.100 149.476 C 183.485 149.375,183.170 149.293,182.400 149.293 C 181.630 149.293,181.315 149.375,181.700 149.476 M176.401 151.798 C 175.886 152.348,175.539 152.864,175.632 152.946 C 175.724 153.028,176.219 152.578,176.730 151.947 C 177.876 150.535,177.674 150.444,176.401 151.798 M188.794 152.603 C 190.387 154.521,190.521 154.645,190.086 153.796 C 189.859 153.353,189.252 152.634,188.737 152.198 C 187.833 151.434,187.835 151.448,188.794 152.603 M97.600 154.925 C 97.600 154.994,98.185 155.579,98.900 156.225 L 100.200 157.400 99.025 156.100 C 97.930 154.888,97.600 154.616,97.600 154.925 M220.515 161.096 C 221.788 161.176,223.768 161.175,224.915 161.094 C 226.062 161.014,225.020 160.949,222.600 160.950 C 220.180 160.951,219.242 161.016,220.515 161.096 M286.115 161.096 C 287.388 161.176,289.368 161.175,290.515 161.094 C 291.662 161.014,290.620 160.949,288.200 160.950 C 285.780 160.951,284.842 161.016,286.115 161.096 M216.000 161.600 C 215.176 161.864,215.141 161.926,215.800 161.954 C 216.240 161.973,216.870 161.813,217.200 161.600 C 217.901 161.147,217.414 161.147,216.000 161.600 M281.600 161.600 C 280.776 161.864,280.741 161.926,281.400 161.954 C 281.840 161.973,282.470 161.813,282.800 161.600 C 283.501 161.147,283.014 161.147,281.600 161.600 M212.500 162.789 C 211.565 163.214,210.800 163.650,210.800 163.758 C 210.800 163.940,214.390 162.483,214.767 162.148 C 215.199 161.764,214.033 162.093,212.500 162.789 M278.100 162.789 C 277.165 163.214,276.400 163.650,276.400 163.758 C 276.400 163.940,279.990 162.483,280.367 162.148 C 280.799 161.764,279.633 162.093,278.100 162.789 M83.640 163.433 C 83.662 164.075,83.833 165.050,84.020 165.600 C 84.249 166.274,84.284 165.949,84.128 164.600 C 83.869 162.350,83.579 161.659,83.640 163.433 M233.146 163.016 C 233.886 163.337,234.606 163.594,234.746 163.586 C 235.266 163.557,232.976 162.428,232.400 162.430 C 232.070 162.431,232.406 162.694,233.146 163.016 M298.746 163.016 C 299.486 163.337,300.206 163.594,300.346 163.586 C 300.866 163.557,298.576 162.428,298.000 162.430 C 297.670 162.431,298.006 162.694,298.746 163.016 M237.200 164.925 C 237.200 165.024,237.861 165.609,238.668 166.225 C 239.476 166.841,240.011 167.141,239.856 166.891 C 239.540 166.379,237.200 164.647,237.200 164.925 M187.979 166.655 C 187.758 167.236,187.652 167.785,187.743 167.876 C 187.833 167.967,188.099 167.492,188.333 166.820 C 188.853 165.328,188.539 165.182,187.979 166.655 M205.375 167.700 L 204.200 169.000 205.500 167.825 C 206.215 167.179,206.800 166.594,206.800 166.525 C 206.800 166.216,206.470 166.488,205.375 167.700 M270.975 167.700 L 269.800 169.000 271.100 167.825 C 271.815 167.179,272.400 166.594,272.400 166.525 C 272.400 166.216,272.070 166.488,270.975 167.700 M102.101 168.600 C 102.105 169.480,102.187 169.793,102.283 169.295 C 102.379 168.798,102.375 168.078,102.275 167.695 C 102.175 167.313,102.096 167.720,102.101 168.600 M145.233 167.328 C 145.869 167.815,148.400 169.136,148.400 168.981 C 148.400 168.713,145.882 167.203,145.433 167.201 C 145.232 167.201,145.142 167.257,145.233 167.328 M84.487 168.800 C 84.483 169.350,84.624 170.250,84.800 170.800 C 85.231 172.144,85.231 170.692,84.800 169.000 C 84.526 167.922,84.494 167.902,84.487 168.800 M202.575 170.500 L 201.400 171.800 202.700 170.625 C 203.415 169.979,204.000 169.394,204.000 169.325 C 204.000 169.016,203.670 169.288,202.575 170.500 M268.175 170.500 L 267.000 171.800 268.300 170.625 C 269.015 169.979,269.600 169.394,269.600 169.325 C 269.600 169.016,269.270 169.288,268.175 170.500 M167.429 173.029 C 167.281 173.615,167.238 174.172,167.332 174.266 C 167.427 174.360,167.624 173.958,167.771 173.371 C 167.919 172.785,167.962 172.228,167.868 172.134 C 167.773 172.040,167.576 172.442,167.429 173.029 M102.893 173.600 C 102.893 174.370,102.975 174.685,103.076 174.300 C 103.176 173.915,103.176 173.285,103.076 172.900 C 102.975 172.515,102.893 172.830,102.893 173.600 M150.244 173.800 C 150.573 175.271,150.802 175.590,150.794 174.567 C 150.791 174.145,150.605 173.530,150.382 173.200 C 150.085 172.762,150.048 172.924,150.244 173.800 M85.287 173.800 C 85.291 174.240,85.432 175.140,85.600 175.800 C 85.874 176.878,85.906 176.898,85.913 176.000 C 85.917 175.450,85.776 174.550,85.600 174.000 C 85.349 173.216,85.281 173.173,85.287 173.800 M264.153 175.700 C 262.776 178.036,262.686 178.235,263.387 177.400 C 264.200 176.432,264.900 175.200,264.638 175.200 C 264.533 175.200,264.315 175.425,264.153 175.700 M221.737 178.306 C 221.483 178.468,222.320 178.600,223.598 178.600 C 224.875 178.600,225.838 178.465,225.737 178.300 C 225.501 177.915,222.346 177.920,221.737 178.306 M287.337 178.306 C 287.083 178.468,287.920 178.600,289.198 178.600 C 290.475 178.600,291.438 178.465,291.337 178.300 C 291.101 177.915,287.946 177.920,287.337 178.306 M86.068 178.800 C 86.088 179.839,86.718 181.546,86.732 180.600 C 86.738 180.160,86.589 179.440,86.400 179.000 C 86.189 178.510,86.061 178.432,86.068 178.800 M165.856 179.284 C 165.721 179.788,165.627 180.560,165.646 181.000 C 165.665 181.440,165.845 181.098,166.046 180.240 C 166.436 178.578,166.270 177.740,165.856 179.284 M227.086 179.405 C 227.562 179.738,228.502 180.679,229.175 181.497 C 229.849 182.314,230.400 182.847,230.400 182.682 C 230.400 182.190,227.134 178.800,226.660 178.800 C 226.419 178.800,226.611 179.072,227.086 179.405 M284.600 179.554 C 283.940 179.967,282.680 181.085,281.800 182.039 L 280.200 183.773 282.200 181.985 C 283.300 181.002,284.650 179.893,285.200 179.520 C 286.564 178.595,286.089 178.622,284.600 179.554 M292.686 179.405 C 293.162 179.738,294.102 180.679,294.775 181.497 C 295.449 182.314,296.000 182.847,296.000 182.682 C 296.000 182.190,292.734 178.800,292.260 178.800 C 292.019 178.800,292.211 179.072,292.686 179.405 M216.576 181.709 L 214.600 183.800 216.593 182.000 C 217.688 181.010,218.663 180.155,218.759 180.100 C 218.855 180.045,218.847 179.914,218.743 179.809 C 218.638 179.704,217.663 180.559,216.576 181.709 M104.493 183.200 C 104.493 183.970,104.575 184.285,104.676 183.900 C 104.776 183.515,104.776 182.885,104.676 182.500 C 104.575 182.115,104.493 182.430,104.493 183.200 M129.200 183.600 C 128.751 184.480,128.474 185.200,128.584 185.200 C 128.694 185.200,129.151 184.480,129.600 183.600 C 130.049 182.720,130.326 182.000,130.216 182.000 C 130.106 182.000,129.649 182.720,129.200 183.600 M86.868 183.600 C 86.888 184.639,87.518 186.346,87.532 185.400 C 87.538 184.960,87.389 184.240,87.200 183.800 C 86.989 183.310,86.861 183.232,86.868 183.600 M249.280 185.000 C 249.280 185.440,249.424 186.250,249.600 186.800 C 249.854 187.592,249.920 187.633,249.920 187.000 C 249.920 186.560,249.776 185.750,249.600 185.200 C 249.346 184.408,249.280 184.367,249.280 185.000 M314.880 185.000 C 314.880 185.440,315.024 186.250,315.200 186.800 C 315.454 187.592,315.520 187.633,315.520 187.000 C 315.520 186.560,315.376 185.750,315.200 185.200 C 314.946 184.408,314.880 184.367,314.880 185.000 M182.273 186.153 C 182.123 186.545,182.011 187.166,182.025 187.533 C 182.042 187.975,182.181 187.874,182.437 187.234 C 182.649 186.703,182.761 186.082,182.685 185.854 C 182.609 185.627,182.424 185.761,182.273 186.153 M232.056 187.600 C 232.056 187.930,232.211 188.560,232.400 189.000 C 232.617 189.504,232.744 189.578,232.744 189.200 C 232.744 188.870,232.589 188.240,232.400 187.800 C 232.183 187.296,232.056 187.222,232.056 187.600 M153.268 188.000 C 153.288 189.039,153.918 190.746,153.932 189.800 C 153.938 189.360,153.789 188.640,153.600 188.200 C 153.389 187.710,153.261 187.632,153.268 188.000 M87.668 188.400 C 87.688 189.439,88.318 191.146,88.332 190.200 C 88.338 189.760,88.189 189.040,88.000 188.600 C 87.789 188.110,87.661 188.032,87.668 188.400 M164.093 189.200 C 164.093 189.970,164.175 190.285,164.276 189.900 C 164.376 189.515,164.376 188.885,164.276 188.500 C 164.175 188.115,164.093 188.430,164.093 189.200 M181.429 190.229 C 181.281 190.815,181.238 191.372,181.332 191.466 C 181.427 191.560,181.624 191.158,181.771 190.571 C 181.919 189.985,181.962 189.428,181.868 189.334 C 181.773 189.240,181.576 189.642,181.429 190.229 M232.901 191.400 C 232.905 192.280,232.987 192.593,233.083 192.095 C 233.179 191.598,233.175 190.878,233.075 190.495 C 232.975 190.113,232.896 190.520,232.901 191.400 M298.501 191.400 C 298.505 192.280,298.587 192.593,298.683 192.095 C 298.779 191.598,298.775 190.878,298.675 190.495 C 298.575 190.113,298.496 190.520,298.501 191.400 M124.981 191.637 C 124.629 192.318,124.412 192.945,124.499 193.032 C 124.586 193.119,124.956 192.562,125.322 191.795 C 126.144 190.070,125.859 189.938,124.981 191.637 M315.734 194.000 C 315.734 195.650,315.805 196.325,315.891 195.500 C 315.978 194.675,315.978 193.325,315.891 192.500 C 315.805 191.675,315.734 192.350,315.734 194.000 M88.468 192.800 C 88.488 193.839,89.118 195.546,89.132 194.600 C 89.138 194.160,88.989 193.440,88.800 193.000 C 88.589 192.510,88.461 192.432,88.468 192.800 M163.301 193.800 C 163.305 194.680,163.387 194.993,163.483 194.495 C 163.579 193.998,163.575 193.278,163.475 192.895 C 163.375 192.513,163.296 192.920,163.301 193.800 M250.109 194.000 C 250.109 194.990,250.187 195.395,250.282 194.900 C 250.378 194.405,250.378 193.595,250.282 193.100 C 250.187 192.605,250.109 193.010,250.109 194.000 M298.893 194.400 C 298.893 195.170,298.975 195.485,299.076 195.100 C 299.176 194.715,299.176 194.085,299.076 193.700 C 298.975 193.315,298.893 193.630,298.893 194.400 M180.600 194.800 C 180.448 195.491,180.407 196.141,180.509 196.242 C 180.611 196.344,180.809 195.853,180.950 195.150 C 181.283 193.483,180.960 193.160,180.600 194.800 M191.050 194.850 C 190.717 196.517,191.040 196.840,191.400 195.200 C 191.552 194.509,191.593 193.859,191.491 193.758 C 191.389 193.656,191.191 194.147,191.050 194.850 M256.650 194.850 C 256.317 196.517,256.640 196.840,257.000 195.200 C 257.152 194.509,257.193 193.859,257.091 193.758 C 256.989 193.656,256.791 194.147,256.650 194.850 M155.044 195.000 C 155.373 196.471,155.602 196.790,155.594 195.767 C 155.591 195.345,155.405 194.730,155.182 194.400 C 154.885 193.962,154.848 194.124,155.044 195.000 M232.901 197.400 C 232.905 198.280,232.987 198.593,233.083 198.095 C 233.179 197.598,233.175 196.878,233.075 196.495 C 232.975 196.113,232.896 196.520,232.901 197.400 M298.501 197.400 C 298.505 198.280,298.587 198.593,298.683 198.095 C 298.779 197.598,298.775 196.878,298.675 196.495 C 298.575 196.113,298.496 196.520,298.501 197.400 M155.848 197.800 C 155.991 198.460,156.266 199.270,156.459 199.600 C 156.684 199.984,156.718 199.768,156.552 199.000 C 156.409 198.340,156.134 197.530,155.941 197.200 C 155.716 196.816,155.682 197.032,155.848 197.800 M162.509 199.200 C 162.509 200.190,162.587 200.595,162.682 200.100 C 162.778 199.605,162.778 198.795,162.682 198.300 C 162.587 197.805,162.509 198.210,162.509 199.200 M179.856 198.884 C 179.721 199.388,179.627 200.160,179.646 200.600 C 179.665 201.040,179.845 200.698,180.046 199.840 C 180.436 198.178,180.270 197.340,179.856 198.884 M190.196 200.909 C 190.043 202.541,189.991 204.219,190.080 204.638 C 190.170 205.057,190.379 203.806,190.546 201.858 C 190.712 199.909,190.764 198.231,190.661 198.128 C 190.558 198.025,190.349 199.276,190.196 200.909 M255.859 200.500 C 255.539 203.168,255.577 209.255,255.930 211.600 C 256.078 212.590,256.200 210.025,256.200 205.900 C 256.200 197.503,256.207 197.608,255.859 200.500 M107.606 199.633 C 107.609 200.165,107.789 200.870,108.006 201.200 C 108.282 201.622,108.323 201.385,108.142 200.400 C 107.825 198.675,107.598 198.349,107.606 199.633 M207.688 204.200 C 207.671 206.840,207.781 209.317,207.935 209.704 C 208.088 210.090,208.158 208.380,208.091 205.904 C 207.916 199.432,207.725 198.626,207.688 204.200 M273.288 204.200 C 273.271 206.840,273.381 209.317,273.535 209.704 C 273.688 210.090,273.758 208.380,273.691 205.904 C 273.516 199.432,273.325 198.626,273.288 204.200 M232.218 201.818 C 232.065 202.839,232.022 203.755,232.122 203.855 C 232.222 203.955,232.429 203.202,232.582 202.182 C 232.735 201.161,232.778 200.245,232.678 200.145 C 232.578 200.045,232.371 200.798,232.218 201.818 M249.440 202.040 C 249.293 202.957,249.252 203.785,249.347 203.880 C 249.442 203.976,249.646 203.310,249.800 202.400 C 249.954 201.490,249.996 200.662,249.893 200.560 C 249.790 200.457,249.587 201.123,249.440 202.040 M315.040 202.040 C 314.893 202.957,314.852 203.785,314.947 203.880 C 315.042 203.976,315.246 203.310,315.400 202.400 C 315.554 201.490,315.596 200.662,315.493 200.560 C 315.390 200.457,315.187 201.123,315.040 202.040 M90.068 201.200 C 90.088 202.239,90.718 203.946,90.732 203.000 C 90.738 202.560,90.589 201.840,90.400 201.400 C 90.189 200.910,90.061 200.832,90.068 201.200 M297.654 203.067 C 297.625 203.544,297.496 204.264,297.370 204.667 C 297.152 205.361,297.164 205.362,297.596 204.688 C 297.847 204.297,297.975 203.577,297.881 203.088 C 297.709 202.201,297.709 202.201,297.654 203.067 M108.406 203.433 C 108.409 203.855,108.595 204.470,108.818 204.800 C 109.115 205.238,109.152 205.076,108.956 204.200 C 108.627 202.729,108.398 202.410,108.406 203.433 M138.900 203.232 C 139.285 203.456,139.614 203.946,139.632 204.320 C 139.652 204.758,139.737 204.817,139.869 204.487 C 140.109 203.891,139.311 202.794,138.651 202.812 C 138.403 202.819,138.515 203.008,138.900 203.232 M179.069 204.356 C 178.921 205.095,178.820 206.082,178.844 206.550 C 178.868 207.018,179.047 206.590,179.242 205.600 C 179.437 204.610,179.538 203.623,179.467 203.406 C 179.396 203.190,179.217 203.617,179.069 204.356 M117.878 205.405 C 117.512 206.172,117.295 206.800,117.396 206.800 C 117.670 206.800,118.884 204.351,118.701 204.168 C 118.614 204.081,118.244 204.638,117.878 205.405 M161.709 206.000 C 161.709 206.990,161.787 207.395,161.882 206.900 C 161.978 206.405,161.978 205.595,161.882 205.100 C 161.787 204.605,161.709 205.010,161.709 206.000 M231.449 205.015 C 231.312 205.373,231.215 205.966,231.234 206.333 C 231.253 206.700,231.427 206.469,231.621 205.820 C 231.998 204.558,231.865 203.933,231.449 205.015 M90.868 205.200 C 90.888 206.239,91.518 207.946,91.532 207.000 C 91.538 206.560,91.389 205.840,91.200 205.400 C 90.989 204.910,90.861 204.832,90.868 205.200 M248.629 206.629 C 248.481 207.215,248.438 207.772,248.532 207.866 C 248.627 207.960,248.824 207.558,248.971 206.971 C 249.119 206.385,249.162 205.828,249.068 205.734 C 248.973 205.640,248.776 206.042,248.629 206.629 M314.229 206.629 C 314.081 207.215,314.038 207.772,314.132 207.866 C 314.227 207.960,314.424 207.558,314.571 206.971 C 314.719 206.385,314.762 205.828,314.668 205.734 C 314.573 205.640,314.376 206.042,314.229 206.629 M109.206 207.033 C 109.209 207.455,109.395 208.070,109.618 208.400 C 109.915 208.838,109.952 208.676,109.756 207.800 C 109.427 206.329,109.198 206.010,109.206 207.033 M190.030 208.233 C 190.046 209.315,190.210 211.010,190.394 212.000 C 190.630 213.269,190.664 212.737,190.511 210.200 C 190.274 206.278,189.982 205.085,190.030 208.233 M230.315 208.610 C 230.192 209.045,229.969 209.760,229.820 210.200 C 229.671 210.640,229.842 210.494,230.200 209.876 C 230.558 209.258,230.781 208.542,230.695 208.286 C 230.610 208.030,230.439 208.176,230.315 208.610 M91.668 209.200 C 91.688 210.239,92.318 211.946,92.332 211.000 C 92.338 210.560,92.189 209.840,92.000 209.400 C 91.789 208.910,91.661 208.832,91.668 209.200 M160.266 210.333 C 160.340 210.626,160.400 210.951,160.400 211.056 C 160.400 211.161,160.580 211.136,160.800 211.000 C 161.020 210.864,161.200 210.573,161.200 210.353 C 161.200 210.133,161.035 210.055,160.834 210.179 C 160.633 210.303,160.392 210.269,160.300 210.102 C 160.207 209.936,160.192 210.040,160.266 210.333 M178.253 210.836 C 178.114 211.531,178.021 212.572,178.047 213.150 C 178.072 213.728,178.255 213.227,178.452 212.039 C 178.837 209.721,178.673 208.734,178.253 210.836 M110.006 210.633 C 110.009 211.055,110.195 211.670,110.418 212.000 C 110.715 212.438,110.752 212.276,110.556 211.400 C 110.227 209.929,109.998 209.610,110.006 210.633 M114.000 212.800 C 113.334 214.120,112.878 215.200,112.988 215.200 C 113.098 215.200,113.734 214.120,114.400 212.800 C 115.066 211.480,115.522 210.400,115.412 210.400 C 115.302 210.400,114.666 211.480,114.000 212.800 M227.792 213.922 C 227.141 214.955,225.981 216.520,225.215 217.400 C 224.117 218.662,224.062 218.789,224.956 218.000 C 226.145 216.951,229.378 212.445,229.124 212.191 C 229.043 212.110,228.444 212.889,227.792 213.922 M293.853 213.300 L 293.133 214.600 293.958 213.600 C 294.689 212.713,295.014 212.000,294.686 212.000 C 294.624 212.000,294.249 212.585,293.853 213.300 M92.644 213.800 C 92.973 215.271,93.202 215.590,93.194 214.567 C 93.191 214.145,93.005 213.530,92.782 213.200 C 92.485 212.762,92.448 212.924,92.644 213.800 M291.226 216.900 C 290.250 218.055,289.953 218.550,290.565 218.000 C 291.596 217.073,293.417 214.800,293.127 214.800 C 293.057 214.800,292.202 215.745,291.226 216.900 M191.044 216.200 C 191.373 217.671,191.602 217.990,191.594 216.967 C 191.591 216.545,191.405 215.930,191.182 215.600 C 190.885 215.162,190.848 215.324,191.044 216.200 M256.644 216.200 C 256.973 217.671,257.202 217.990,257.194 216.967 C 257.191 216.545,257.005 215.930,256.782 215.600 C 256.485 215.162,256.448 215.324,256.644 216.200 M275.615 216.200 C 275.617 216.420,275.986 217.050,276.436 217.600 C 276.979 218.264,277.115 218.331,276.840 217.800 C 276.166 216.495,275.612 215.772,275.615 216.200 M93.458 217.600 C 93.775 219.325,94.002 219.651,93.994 218.367 C 93.991 217.835,93.811 217.130,93.594 216.800 C 93.318 216.378,93.277 216.615,93.458 217.600 M177.472 217.804 C 177.327 218.682,177.230 220.120,177.255 221.000 C 177.289 222.167,177.398 221.848,177.657 219.821 C 178.045 216.797,177.900 215.214,177.472 217.804 M212.198 219.537 C 212.634 220.052,213.353 220.659,213.796 220.886 C 214.645 221.321,214.521 221.187,212.603 219.594 C 211.448 218.635,211.434 218.633,212.198 219.537 M277.798 219.537 C 278.234 220.052,278.953 220.659,279.396 220.886 C 280.245 221.321,280.121 221.187,278.203 219.594 C 277.048 218.635,277.034 218.633,277.798 219.537 M215.338 221.694 C 215.592 221.856,216.430 221.988,217.200 221.988 C 217.970 221.988,218.808 221.856,219.062 221.694 C 219.316 221.532,218.478 221.400,217.200 221.400 C 215.922 221.400,215.084 221.532,215.338 221.694 M280.938 221.694 C 281.192 221.856,282.030 221.988,282.800 221.988 C 283.570 221.988,284.408 221.856,284.662 221.694 C 284.916 221.532,284.078 221.400,282.800 221.400 C 281.522 221.400,280.684 221.532,280.938 221.694 M306.637 225.100 C 305.825 226.365,305.579 226.908,306.090 226.306 C 307.100 225.118,308.547 222.800,308.279 222.800 C 308.188 222.800,307.449 223.835,306.637 225.100 M240.585 225.700 C 239.968 226.635,239.720 227.189,240.032 226.931 C 240.633 226.434,242.164 224.000,241.876 224.000 C 241.783 224.000,241.202 224.765,240.585 225.700 M194.349 225.400 C 194.565 225.840,195.034 226.560,195.393 227.000 L 196.044 227.800 195.651 227.000 C 195.435 226.560,194.966 225.840,194.607 225.400 L 193.956 224.600 194.349 225.400 M260.760 226.600 C 261.434 227.905,261.988 228.628,261.985 228.200 C 261.983 227.980,261.614 227.350,261.164 226.800 C 260.621 226.136,260.485 226.069,260.760 226.600 M148.800 228.000 C 149.249 228.880,149.706 229.600,149.816 229.600 C 149.926 229.600,149.649 228.880,149.200 228.000 C 148.751 227.120,148.294 226.400,148.184 226.400 C 148.074 226.400,148.351 227.120,148.800 228.000 M176.961 233.600 C 176.961 237.010,177.022 238.405,177.097 236.700 C 177.172 234.995,177.172 232.205,177.097 230.500 C 177.022 228.795,176.961 230.190,176.961 233.600 M96.644 230.200 C 96.973 231.671,97.202 231.990,97.194 230.967 C 97.191 230.545,97.005 229.930,96.782 229.600 C 96.485 229.162,96.448 229.324,96.644 230.200 M197.825 230.510 C 198.422 231.341,199.651 232.572,200.555 233.246 L 202.200 234.472 200.800 233.229 C 200.030 232.545,198.801 231.314,198.069 230.493 L 196.739 229.000 197.825 230.510 M235.978 231.500 L 234.600 233.000 236.100 231.622 C 237.496 230.338,237.784 230.000,237.478 230.000 C 237.412 230.000,236.737 230.675,235.978 231.500 M301.578 231.500 L 300.200 233.000 301.700 231.622 C 302.525 230.863,303.200 230.188,303.200 230.122 C 303.200 229.816,302.862 230.104,301.578 231.500 M151.400 232.800 C 151.741 233.460,152.111 234.000,152.221 234.000 C 152.331 234.000,152.141 233.460,151.800 232.800 C 151.459 232.140,151.089 231.600,150.979 231.600 C 150.869 231.600,151.059 232.140,151.400 232.800 M264.400 231.733 C 264.400 231.843,265.120 232.503,266.000 233.200 C 266.880 233.897,267.600 234.377,267.600 234.267 C 267.600 234.157,266.880 233.497,266.000 232.800 C 265.120 232.103,264.400 231.623,264.400 231.733 M97.444 233.000 C 97.773 234.471,98.002 234.790,97.994 233.767 C 97.991 233.345,97.805 232.730,97.582 232.400 C 97.285 231.962,97.248 232.124,97.444 233.000 M229.800 236.000 C 229.140 236.437,228.780 236.792,229.000 236.788 C 229.401 236.782,231.576 235.223,231.200 235.212 C 231.090 235.208,230.460 235.563,229.800 236.000 M206.400 237.000 C 206.950 237.314,207.580 237.572,207.800 237.572 C 208.020 237.572,207.750 237.314,207.200 237.000 C 206.650 236.686,206.020 236.428,205.800 236.428 C 205.580 236.428,205.850 236.686,206.400 237.000 M272.000 237.000 C 272.550 237.314,273.180 237.572,273.400 237.572 C 273.620 237.572,273.350 237.314,272.800 237.000 C 272.250 236.686,271.620 236.428,271.400 236.428 C 271.180 236.428,271.450 236.686,272.000 237.000 M210.400 238.400 C 211.768 238.838,212.819 238.838,211.800 238.400 C 211.360 238.211,210.640 238.062,210.200 238.068 C 209.557 238.077,209.596 238.143,210.400 238.400 M223.400 238.400 C 222.381 238.838,223.432 238.838,224.800 238.400 C 225.604 238.143,225.643 238.077,225.000 238.068 C 224.560 238.062,223.840 238.211,223.400 238.400 M289.000 238.400 C 287.981 238.838,289.032 238.838,290.400 238.400 C 291.204 238.143,291.243 238.077,290.600 238.068 C 290.160 238.062,289.440 238.211,289.000 238.400 M214.105 239.087 C 214.714 239.179,215.614 239.177,216.105 239.082 C 216.597 238.987,216.100 238.911,215.000 238.914 C 213.900 238.917,213.497 238.995,214.105 239.087 M219.300 239.087 C 219.905 239.178,220.895 239.178,221.500 239.087 C 222.105 238.995,221.610 238.920,220.400 238.920 C 219.190 238.920,218.695 238.995,219.300 239.087 M279.705 239.087 C 280.314 239.179,281.214 239.177,281.705 239.082 C 282.197 238.987,281.700 238.911,280.600 238.914 C 279.500 238.917,279.097 238.995,279.705 239.087 M284.900 239.087 C 285.505 239.178,286.495 239.178,287.100 239.087 C 287.705 238.995,287.210 238.920,286.000 238.920 C 284.790 238.920,284.295 238.995,284.900 239.087 M116.575 244.268 C 115.959 245.076,115.659 245.611,115.909 245.456 C 116.421 245.140,118.153 242.800,117.875 242.800 C 117.776 242.800,117.191 243.461,116.575 244.268 M176.629 244.229 C 176.481 244.815,176.438 245.372,176.532 245.466 C 176.627 245.560,176.824 245.158,176.971 244.571 C 177.119 243.985,177.162 243.428,177.068 243.334 C 176.973 243.240,176.776 243.642,176.629 244.229 M162.200 247.200 C 163.283 248.300,164.260 249.200,164.370 249.200 C 164.480 249.200,163.683 248.300,162.600 247.200 C 161.517 246.100,160.540 245.200,160.430 245.200 C 160.320 245.200,161.117 246.100,162.200 247.200 M174.175 248.900 L 173.000 250.200 174.300 249.025 C 175.512 247.930,175.784 247.600,175.475 247.600 C 175.406 247.600,174.821 248.185,174.175 248.900 " stroke="none" fill="#d2b5cc" fill-rule="evenodd"></path><path id="path3" d="M282.378 181.900 L 281.000 183.400 282.500 182.022 C 283.896 180.738,284.184 180.400,283.878 180.400 C 283.812 180.400,283.137 181.075,282.378 181.900 M189.740 206.000 C 189.740 207.870,189.809 208.635,189.893 207.700 C 189.977 206.765,189.977 205.235,189.893 204.300 C 189.809 203.365,189.740 204.130,189.740 206.000 M177.314 226.600 C 177.317 227.700,177.395 228.103,177.487 227.495 C 177.579 226.886,177.577 225.986,177.482 225.495 C 177.387 225.003,177.311 225.500,177.314 226.600 M177.324 241.400 C 177.326 242.720,177.401 243.212,177.490 242.493 C 177.579 241.774,177.577 240.694,177.486 240.093 C 177.395 239.492,177.322 240.080,177.324 241.400 M168.705 251.083 C 169.202 251.179,169.922 251.175,170.305 251.075 C 170.687 250.975,170.280 250.896,169.400 250.901 C 168.520 250.905,168.207 250.987,168.705 251.083 " stroke="none" fill="#c098b8" fill-rule="evenodd"></path><path id="path4" d="M92.305 153.883 C 92.802 153.979,93.522 153.975,93.905 153.875 C 94.287 153.775,93.880 153.696,93.000 153.701 C 92.120 153.705,91.807 153.787,92.305 153.883 M203.781 168.900 L 202.200 170.600 203.900 169.019 C 205.481 167.548,205.784 167.200,205.481 167.200 C 205.416 167.200,204.651 167.965,203.781 168.900 M232.893 194.400 C 232.893 195.170,232.975 195.485,233.076 195.100 C 233.176 194.715,233.176 194.085,233.076 193.700 C 232.975 193.315,232.893 193.630,232.893 194.400 M298.493 194.400 C 298.493 195.170,298.575 195.485,298.676 195.100 C 298.776 194.715,298.776 194.085,298.676 193.700 C 298.575 193.315,298.493 193.630,298.493 194.400 M216.900 239.476 C 217.285 239.576,217.915 239.576,218.300 239.476 C 218.685 239.375,218.370 239.293,217.600 239.293 C 216.830 239.293,216.515 239.375,216.900 239.476 M282.500 239.476 C 282.885 239.576,283.515 239.576,283.900 239.476 C 284.285 239.375,283.970 239.293,283.200 239.293 C 282.430 239.293,282.115 239.375,282.500 239.476 " stroke="none" fill="#cca7c4" fill-rule="evenodd"></path><path id="path5" d="" stroke="none" fill="#ccaccc" fill-rule="evenodd"></path><path id="path6" d="M142.500 166.676 C 142.885 166.776,143.515 166.776,143.900 166.676 C 144.285 166.575,143.970 166.493,143.200 166.493 C 142.430 166.493,142.115 166.575,142.500 166.676 M316.109 192.400 C 316.109 193.390,316.187 193.795,316.282 193.300 C 316.378 192.805,316.378 191.995,316.282 191.500 C 316.187 191.005,316.109 191.410,316.109 192.400 M250.534 194.000 C 250.534 195.650,250.605 196.325,250.691 195.500 C 250.778 194.675,250.778 193.325,250.691 192.500 C 250.605 191.675,250.534 192.350,250.534 194.000 M316.101 195.800 C 316.105 196.680,316.187 196.993,316.283 196.495 C 316.379 195.998,316.375 195.278,316.275 194.895 C 316.175 194.513,316.096 194.920,316.101 195.800 M189.693 201.600 C 189.693 202.370,189.775 202.685,189.876 202.300 C 189.976 201.915,189.976 201.285,189.876 200.900 C 189.775 200.515,189.693 200.830,189.693 201.600 M255.353 205.800 C 255.353 208.440,255.418 209.468,255.497 208.084 C 255.575 206.701,255.574 204.541,255.495 203.284 C 255.416 202.028,255.352 203.160,255.353 205.800 M177.358 233.800 C 177.358 236.880,177.421 238.087,177.497 236.482 C 177.573 234.878,177.573 232.358,177.496 230.882 C 177.419 229.407,177.357 230.720,177.358 233.800 " stroke="none" fill="#b484ac" fill-rule="evenodd"></path><path id="path7" d="M181.100 149.089 C 181.815 149.178,182.985 149.178,183.700 149.089 C 184.415 149.001,183.830 148.928,182.400 148.928 C 180.970 148.928,180.385 149.001,181.100 149.089 M176.467 151.100 C 175.630 151.935,175.504 152.136,176.182 151.553 C 176.852 150.977,177.760 150.307,178.200 150.065 C 178.640 149.823,178.768 149.619,178.485 149.612 C 178.201 149.605,177.293 150.275,176.467 151.100 M189.000 152.000 C 189.859 152.880,190.652 153.600,190.762 153.600 C 190.872 153.600,190.259 152.880,189.400 152.000 C 188.541 151.120,187.748 150.400,187.638 150.400 C 187.528 150.400,188.141 151.120,189.000 152.000 M91.700 153.487 C 92.305 153.578,93.295 153.578,93.900 153.487 C 94.505 153.395,94.010 153.320,92.800 153.320 C 91.590 153.320,91.095 153.395,91.700 153.487 M101.458 160.400 C 101.775 162.125,102.002 162.451,101.994 161.167 C 101.991 160.635,101.811 159.930,101.594 159.600 C 101.318 159.178,101.277 159.415,101.458 160.400 M83.356 160.571 C 83.235 160.885,83.204 161.560,83.286 162.071 C 83.395 162.754,83.488 162.604,83.637 161.500 C 83.847 159.947,83.736 159.581,83.356 160.571 M219.000 160.419 C 218.442 160.671,218.685 160.707,219.800 160.538 C 220.680 160.404,221.475 160.228,221.567 160.147 C 221.910 159.844,219.768 160.071,219.000 160.419 M223.633 160.147 C 223.725 160.228,224.520 160.404,225.400 160.538 C 226.515 160.707,226.758 160.671,226.200 160.419 C 225.432 160.071,223.290 159.844,223.633 160.147 M284.600 160.410 C 284.066 160.647,284.398 160.686,285.600 160.527 C 286.590 160.396,287.475 160.224,287.567 160.144 C 287.914 159.843,285.364 160.072,284.600 160.410 M289.233 160.147 C 289.325 160.228,290.120 160.404,291.000 160.538 C 292.115 160.707,292.358 160.671,291.800 160.419 C 291.032 160.071,288.890 159.844,289.233 160.147 M83.206 165.433 C 83.209 166.075,83.384 166.870,83.595 167.200 C 83.855 167.609,83.899 167.290,83.732 166.200 C 83.429 164.223,83.198 163.886,83.206 165.433 M238.944 165.509 C 239.260 166.021,241.600 167.753,241.600 167.475 C 241.600 167.376,240.939 166.791,240.132 166.175 C 239.324 165.559,238.789 165.259,238.944 165.509 M102.501 167.000 C 102.505 167.880,102.587 168.193,102.683 167.695 C 102.779 167.198,102.775 166.478,102.675 166.095 C 102.575 165.713,102.496 166.120,102.501 167.000 M103.293 172.000 C 103.293 172.770,103.375 173.085,103.476 172.700 C 103.576 172.315,103.576 171.685,103.476 171.300 C 103.375 170.915,103.293 171.230,103.293 172.000 M151.458 176.400 C 151.775 178.125,152.002 178.451,151.994 177.167 C 151.991 176.635,151.811 175.930,151.594 175.600 C 151.318 175.178,151.277 175.415,151.458 176.400 M104.006 177.633 C 104.009 178.165,104.189 178.870,104.406 179.200 C 104.682 179.622,104.723 179.385,104.542 178.400 C 104.225 176.675,103.998 176.349,104.006 177.633 M223.105 179.083 C 223.602 179.179,224.322 179.175,224.705 179.075 C 225.087 178.975,224.680 178.896,223.800 178.901 C 222.920 178.905,222.607 178.987,223.105 179.083 M288.705 179.083 C 289.202 179.179,289.922 179.175,290.305 179.075 C 290.687 178.975,290.280 178.896,289.400 178.901 C 288.520 178.905,288.207 178.987,288.705 179.083 M226.433 179.700 C 226.525 179.755,227.140 180.250,227.800 180.800 L 229.000 181.800 228.030 180.700 C 227.497 180.095,226.882 179.600,226.664 179.600 C 226.445 179.600,226.342 179.645,226.433 179.700 M292.033 179.700 C 292.125 179.755,292.740 180.250,293.400 180.800 L 294.600 181.800 293.630 180.700 C 293.097 180.095,292.482 179.600,292.264 179.600 C 292.045 179.600,291.942 179.645,292.033 179.700 M85.606 180.633 C 85.609 181.055,85.795 181.670,86.018 182.000 C 86.315 182.438,86.352 182.276,86.156 181.400 C 85.827 179.929,85.598 179.610,85.606 180.633 M216.581 182.500 L 215.000 184.200 216.700 182.619 C 218.281 181.148,218.584 180.800,218.281 180.800 C 218.216 180.800,217.451 181.565,216.581 182.500 M282.378 182.300 L 281.000 183.800 282.500 182.422 C 283.896 181.138,284.184 180.800,283.878 180.800 C 283.812 180.800,283.137 181.475,282.378 182.300 M104.806 182.033 C 104.809 182.565,104.989 183.270,105.206 183.600 C 105.482 184.022,105.523 183.785,105.342 182.800 C 105.025 181.075,104.798 180.749,104.806 182.033 M183.646 183.267 C 183.621 183.634,183.496 184.264,183.370 184.667 C 183.152 185.362,183.163 185.363,183.597 184.687 C 183.848 184.296,183.973 183.666,183.873 183.287 C 183.711 182.668,183.688 182.666,183.646 183.267 M315.444 184.600 C 315.773 186.071,316.002 186.390,315.994 185.367 C 315.991 184.945,315.805 184.330,315.582 184.000 C 315.285 183.562,315.248 183.724,315.444 184.600 M231.444 187.800 C 231.773 189.271,232.002 189.590,231.994 188.567 C 231.991 188.145,231.805 187.530,231.582 187.200 C 231.285 186.762,231.248 186.924,231.444 187.800 M87.206 189.833 C 87.209 190.255,87.395 190.870,87.618 191.200 C 87.915 191.638,87.952 191.476,87.756 190.600 C 87.427 189.129,87.198 188.810,87.206 189.833 M182.046 190.867 C 182.021 191.234,181.896 191.864,181.770 192.267 C 181.552 192.962,181.563 192.963,181.997 192.287 C 182.248 191.896,182.373 191.266,182.273 190.887 C 182.111 190.268,182.088 190.266,182.046 190.867 M316.542 194.200 C 316.541 196.180,316.608 197.040,316.692 196.112 C 316.776 195.184,316.777 193.564,316.695 192.512 C 316.612 191.460,316.543 192.220,316.542 194.200 M232.534 194.400 C 232.534 196.050,232.605 196.725,232.691 195.900 C 232.778 195.075,232.778 193.725,232.691 192.900 C 232.605 192.075,232.534 192.750,232.534 194.400 M250.928 194.000 C 250.928 195.430,251.001 196.015,251.089 195.300 C 251.178 194.585,251.178 193.415,251.089 192.700 C 251.001 191.985,250.928 192.570,250.928 194.000 M298.134 194.400 C 298.134 196.050,298.205 196.725,298.291 195.900 C 298.378 195.075,298.378 193.725,298.291 192.900 C 298.205 192.075,298.134 192.750,298.134 194.400 M181.246 195.267 C 181.221 195.634,181.096 196.264,180.970 196.667 C 180.752 197.362,180.763 197.363,181.197 196.687 C 181.448 196.296,181.573 195.666,181.473 195.287 C 181.311 194.668,181.288 194.666,181.246 195.267 M189.867 197.867 C 189.720 198.013,189.615 198.598,189.634 199.167 C 189.668 200.181,189.675 200.179,190.021 199.020 C 190.385 197.803,190.331 197.402,189.867 197.867 M255.449 198.215 C 255.312 198.573,255.218 199.256,255.241 199.733 C 255.267 200.281,255.403 200.086,255.610 199.203 C 255.960 197.716,255.865 197.133,255.449 198.215 M161.829 199.429 C 161.681 200.015,161.638 200.572,161.732 200.666 C 161.827 200.760,162.024 200.358,162.171 199.771 C 162.319 199.185,162.362 198.628,162.268 198.534 C 162.173 198.440,161.976 198.842,161.829 199.429 M208.218 201.818 C 208.065 202.839,208.022 203.755,208.122 203.855 C 208.222 203.955,208.429 203.202,208.582 202.182 C 208.735 201.161,208.778 200.245,208.678 200.145 C 208.578 200.045,208.371 200.798,208.218 201.818 M231.701 201.400 C 231.705 202.280,231.787 202.593,231.883 202.095 C 231.979 201.598,231.975 200.878,231.875 200.495 C 231.775 200.113,231.696 200.520,231.701 201.400 M273.800 202.000 C 273.646 202.910,273.604 203.738,273.707 203.840 C 273.810 203.943,274.013 203.277,274.160 202.360 C 274.307 201.443,274.348 200.615,274.253 200.520 C 274.158 200.424,273.954 201.090,273.800 202.000 M315.646 203.267 C 315.621 203.634,315.496 204.264,315.370 204.667 C 315.152 205.362,315.163 205.363,315.597 204.687 C 315.848 204.296,315.973 203.666,315.873 203.287 C 315.711 202.668,315.688 202.666,315.646 203.267 M161.029 205.429 C 160.881 206.015,160.838 206.572,160.932 206.666 C 161.027 206.760,161.224 206.358,161.371 205.771 C 161.519 205.185,161.562 204.628,161.468 204.534 C 161.373 204.440,161.176 204.842,161.029 205.429 M179.646 205.667 C 179.621 206.034,179.496 206.664,179.370 207.067 C 179.152 207.762,179.163 207.763,179.597 207.087 C 179.848 206.696,179.973 206.066,179.873 205.687 C 179.711 205.068,179.688 205.066,179.646 205.667 M273.668 206.400 C 273.688 207.439,274.318 209.146,274.332 208.200 C 274.338 207.760,274.189 207.040,274.000 206.600 C 273.789 206.110,273.661 206.032,273.668 206.400 M135.600 210.000 C 135.151 210.880,134.874 211.600,134.984 211.600 C 135.094 211.600,135.551 210.880,136.000 210.000 C 136.449 209.120,136.726 208.400,136.616 208.400 C 136.506 208.400,136.049 209.120,135.600 210.000 M255.206 212.033 C 255.209 212.565,255.389 213.270,255.606 213.600 C 255.882 214.022,255.923 213.785,255.742 212.800 C 255.425 211.075,255.198 210.749,255.206 212.033 M189.606 212.233 C 189.609 212.655,189.795 213.270,190.018 213.600 C 190.315 214.038,190.352 213.876,190.156 213.000 C 189.827 211.529,189.598 211.210,189.606 212.233 M178.846 212.467 C 178.821 212.834,178.696 213.464,178.570 213.867 C 178.352 214.562,178.363 214.563,178.797 213.887 C 179.048 213.496,179.173 212.866,179.073 212.487 C 178.911 211.868,178.888 211.866,178.846 212.467 M178.054 220.400 C 178.019 220.950,177.896 221.850,177.783 222.400 L 177.577 223.400 178.007 222.415 C 178.243 221.874,178.365 220.974,178.278 220.415 L 178.120 219.400 178.054 220.400 M216.305 221.083 C 216.802 221.179,217.522 221.175,217.905 221.075 C 218.287 220.975,217.880 220.896,217.000 220.901 C 216.120 220.905,215.807 220.987,216.305 221.083 M281.905 221.083 C 282.402 221.179,283.122 221.175,283.505 221.075 C 283.887 220.975,283.480 220.896,282.600 220.901 C 281.720 220.905,281.407 220.987,281.905 221.083 M302.181 231.700 L 300.600 233.400 302.300 231.819 C 303.881 230.348,304.184 230.000,303.881 230.000 C 303.816 230.000,303.051 230.765,302.181 231.700 M236.378 231.900 L 235.000 233.400 236.500 232.022 C 237.896 230.738,238.184 230.400,237.878 230.400 C 237.812 230.400,237.137 231.075,236.378 231.900 M266.767 234.545 C 267.300 235.201,268.800 236.193,268.800 235.889 C 268.800 235.813,268.215 235.322,267.500 234.799 C 266.696 234.210,266.416 234.113,266.767 234.545 M212.500 239.476 C 212.885 239.576,213.515 239.576,213.900 239.476 C 214.285 239.375,213.970 239.293,213.200 239.293 C 212.430 239.293,212.115 239.375,212.500 239.476 M278.100 239.476 C 278.485 239.576,279.115 239.576,279.500 239.476 C 279.885 239.375,279.570 239.293,278.800 239.293 C 278.030 239.293,277.715 239.375,278.100 239.476 M161.800 247.600 C 162.883 248.700,163.860 249.600,163.970 249.600 C 164.080 249.600,163.283 248.700,162.200 247.600 C 161.117 246.500,160.140 245.600,160.030 245.600 C 159.920 245.600,160.717 246.500,161.800 247.600 M114.378 247.900 L 113.000 249.400 114.500 248.022 C 115.325 247.263,116.000 246.588,116.000 246.522 C 116.000 246.216,115.662 246.504,114.378 247.900 M110.800 250.400 C 110.030 250.822,109.544 251.174,109.720 251.183 C 110.144 251.205,112.400 250.032,112.400 249.790 C 112.400 249.528,112.377 249.537,110.800 250.400 M168.900 251.476 C 169.285 251.576,169.915 251.576,170.300 251.476 C 170.685 251.375,170.370 251.293,169.600 251.293 C 168.830 251.293,168.515 251.375,168.900 251.476 " stroke="none" fill="#ab76a0" fill-rule="evenodd"></path><path id="path8" d="M216.900 239.876 C 217.285 239.976,217.915 239.976,218.300 239.876 C 218.685 239.775,218.370 239.693,217.600 239.693 C 216.830 239.693,216.515 239.775,216.900 239.876 M282.500 239.876 C 282.885 239.976,283.515 239.976,283.900 239.876 C 284.285 239.775,283.970 239.693,283.200 239.693 C 282.430 239.693,282.115 239.775,282.500 239.876 " stroke="none" fill="#b47ca4" fill-rule="evenodd"></path></g></svg>